<svg width="644" height="226" viewBox="0 0 644 226" fill="none" xmlns="http://www.w3.org/2000/svg">
<rect x="0.5" y="0.5" width="643" height="224.333" rx="12.5" fill="white"/>
<rect width="642" height="85.3333" transform="translate(1 1)" fill="#FAFBFB"/>
<path d="M22.02 51.1665V44.8865L17.28 36.9665H20.04L23.22 42.4665H23.26L26.42 36.9665H29.22L24.44 44.8865V51.1665H22.02ZM33.5859 51.3265C32.0659 51.3265 30.8326 50.8532 29.8859 49.9065C28.9393 48.9598 28.4659 47.7598 28.4659 46.3065C28.4659 44.8532 28.9393 43.6532 29.8859 42.7065C30.8326 41.7465 32.0659 41.2665 33.5859 41.2665C35.0926 41.2665 36.3193 41.7332 37.2659 42.6665C38.2259 43.5998 38.7059 44.8132 38.7059 46.3065C38.7059 47.7865 38.2259 48.9932 37.2659 49.9265C36.3193 50.8598 35.0926 51.3265 33.5859 51.3265ZM33.5859 49.2865C34.3859 49.2865 35.0593 49.0065 35.6059 48.4465C36.1526 47.8865 36.4259 47.1732 36.4259 46.3065C36.4259 45.4132 36.1526 44.6865 35.6059 44.1265C35.0726 43.5665 34.3993 43.2865 33.5859 43.2865C32.7459 43.2865 32.0593 43.5732 31.5259 44.1465C31.0059 44.7198 30.7459 45.4398 30.7459 46.3065C30.7459 47.1465 31.0126 47.8532 31.5459 48.4265C32.0793 48.9998 32.7593 49.2865 33.5859 49.2865ZM44.4981 51.3265C42.0581 51.3265 40.8381 49.9998 40.8381 47.3465V41.4065H43.0781V46.7465C43.0781 47.6932 43.2248 48.3532 43.5181 48.7265C43.8248 49.0998 44.3248 49.2865 45.0181 49.2865C45.7115 49.2865 46.2981 49.0065 46.7781 48.4465C47.2715 47.8732 47.5181 47.0865 47.5181 46.0865V41.4065H49.7581V51.1665H47.5181V49.9465L47.4781 49.9265C46.7048 50.8598 45.7115 51.3265 44.4981 51.3265ZM52.6006 51.1665V41.4065H54.8406V42.8665H54.8806C55.6806 41.7998 56.6873 41.2665 57.9006 41.2665H58.1806V43.7665C57.834 43.7398 57.6073 43.7265 57.5006 43.7265C56.674 43.7265 56.0206 43.9932 55.5406 44.5265C55.074 45.0465 54.8406 45.7198 54.8406 46.5465V51.1665H52.6006ZM69.5336 51.3265C68.1603 51.3265 67.0269 50.8665 66.1336 49.9465C65.2403 49.0265 64.7936 47.8198 64.7936 46.3265C64.7936 44.8598 65.2403 43.6532 66.1336 42.7065C67.0403 41.7465 68.1669 41.2665 69.5136 41.2665C70.8469 41.2665 71.8869 41.7132 72.6336 42.6065H72.6536V36.4465H74.8736V51.1665H72.7336V49.8465H72.7136C71.9536 50.8332 70.8936 51.3265 69.5336 51.3265ZM67.8536 48.4665C68.3869 49.0132 69.0603 49.2865 69.8736 49.2865C70.6869 49.2865 71.3669 49.0132 71.9136 48.4665C72.4603 47.9198 72.7336 47.2132 72.7336 46.3465C72.7336 45.4665 72.4669 44.7398 71.9336 44.1665C71.4003 43.5798 70.7203 43.2865 69.8936 43.2865C69.0936 43.2865 68.4203 43.5665 67.8736 44.1265C67.3403 44.6865 67.0736 45.4265 67.0736 46.3465C67.0736 47.2132 67.3336 47.9198 67.8536 48.4665ZM81.9159 51.3265C80.5426 51.3265 79.4093 50.8665 78.5159 49.9465C77.6359 49.0265 77.1959 47.8198 77.1959 46.3265C77.1959 44.8598 77.6426 43.6532 78.5359 42.7065C79.4293 41.7465 80.5493 41.2665 81.8959 41.2665C83.2026 41.2665 84.2093 41.7132 84.9159 42.6065L84.9559 42.5865V41.4065H87.1959V51.1665H85.0559V49.8865L85.0159 49.8665C84.2959 50.8398 83.2626 51.3265 81.9159 51.3265ZM82.2759 49.2865C83.0493 49.2865 83.7026 49.0132 84.2359 48.4665C84.7826 47.9198 85.0559 47.2132 85.0559 46.3465C85.0559 45.4798 84.7893 44.7532 84.2559 44.1665C83.7359 43.5798 83.0759 43.2865 82.2759 43.2865C81.4759 43.2865 80.8093 43.5665 80.2759 44.1265C79.7426 44.6865 79.4759 45.4265 79.4759 46.3465C79.4759 47.2132 79.7359 47.9198 80.2559 48.4665C80.7759 49.0132 81.4493 49.2865 82.2759 49.2865ZM92.9225 51.3265C92.0692 51.3265 91.4025 51.0532 90.9225 50.5065C90.4425 49.9598 90.2025 49.1532 90.2025 48.0865V43.3065H89.0025V41.4065H90.2025V38.1665L92.4425 37.9265V41.4065H95.3025V43.3065H92.4425V47.8665C92.4425 48.3598 92.5158 48.7132 92.6625 48.9265C92.8092 49.1265 93.0492 49.2265 93.3825 49.2265C93.8225 49.2265 94.3025 49.0865 94.8225 48.8065L95.4025 50.7465C94.6958 51.1332 93.8692 51.3265 92.9225 51.3265ZM101.018 51.3265C99.6442 51.3265 98.5108 50.8665 97.6175 49.9465C96.7375 49.0265 96.2975 47.8198 96.2975 46.3265C96.2975 44.8598 96.7442 43.6532 97.6375 42.7065C98.5308 41.7465 99.6508 41.2665 100.998 41.2665C102.304 41.2665 103.311 41.7132 104.018 42.6065L104.058 42.5865V41.4065H106.298V51.1665H104.158V49.8865L104.118 49.8665C103.398 50.8398 102.364 51.3265 101.018 51.3265ZM101.378 49.2865C102.151 49.2865 102.804 49.0132 103.338 48.4665C103.884 47.9198 104.158 47.2132 104.158 46.3465C104.158 45.4798 103.891 44.7532 103.358 44.1665C102.838 43.5798 102.178 43.2865 101.378 43.2865C100.578 43.2865 99.9108 43.5665 99.3775 44.1265C98.8442 44.6865 98.5775 45.4265 98.5775 46.3465C98.5775 47.2132 98.8375 47.9198 99.3575 48.4665C99.8775 49.0132 100.551 49.2865 101.378 49.2865ZM116.956 51.1665V40.2065L114.476 42.0665L113.376 40.3465L117.396 37.4265H119.276V51.1665H116.956ZM127.324 51.3265C125.737 51.3265 124.457 50.7065 123.484 49.4665C122.524 48.2132 122.044 46.4932 122.044 44.3065C122.044 42.1998 122.517 40.5065 123.464 39.2265C124.411 37.9332 125.697 37.2865 127.324 37.2865C128.911 37.2865 130.184 37.9065 131.144 39.1465C132.117 40.3865 132.604 42.1065 132.604 44.3065C132.604 46.4132 132.131 48.1132 131.184 49.4065C130.251 50.6865 128.964 51.3265 127.324 51.3265ZM127.324 49.1665C128.244 49.1665 128.957 48.7398 129.464 47.8865C129.984 47.0332 130.244 45.8398 130.244 44.3065C130.244 42.7732 129.984 41.5798 129.464 40.7265C128.944 39.8598 128.231 39.4265 127.324 39.4265C126.417 39.4265 125.704 39.8598 125.184 40.7265C124.664 41.5798 124.404 42.7732 124.404 44.3065C124.404 45.8132 124.664 46.9998 125.184 47.8665C125.717 48.7332 126.431 49.1665 127.324 49.1665ZM139.961 51.3265C138.374 51.3265 137.094 50.7065 136.121 49.4665C135.161 48.2132 134.681 46.4932 134.681 44.3065C134.681 42.1998 135.154 40.5065 136.101 39.2265C137.047 37.9332 138.334 37.2865 139.961 37.2865C141.547 37.2865 142.821 37.9065 143.781 39.1465C144.754 40.3865 145.241 42.1065 145.241 44.3065C145.241 46.4132 144.767 48.1132 143.821 49.4065C142.887 50.6865 141.601 51.3265 139.961 51.3265ZM139.961 49.1665C140.881 49.1665 141.594 48.7398 142.101 47.8865C142.621 47.0332 142.881 45.8398 142.881 44.3065C142.881 42.7732 142.621 41.5798 142.101 40.7265C141.581 39.8598 140.867 39.4265 139.961 39.4265C139.054 39.4265 138.341 39.8598 137.821 40.7265C137.301 41.5798 137.041 42.7732 137.041 44.3065C137.041 45.8132 137.301 46.9998 137.821 47.8665C138.354 48.7332 139.067 49.1665 139.961 49.1665ZM154.297 51.6065L152.497 50.8265L158.777 36.6665L160.577 37.4465L154.297 51.6065ZM151.217 44.7465C150.084 44.7465 149.124 44.3798 148.337 43.6465C147.564 42.8998 147.177 41.9398 147.177 40.7665C147.177 39.6598 147.551 38.7265 148.297 37.9665C149.057 37.1932 150.031 36.8065 151.217 36.8065C152.337 36.8065 153.284 37.1798 154.057 37.9265C154.844 38.6598 155.237 39.6065 155.237 40.7665C155.237 41.8732 154.857 42.8132 154.097 43.5865C153.351 44.3598 152.391 44.7465 151.217 44.7465ZM151.217 43.0465C151.857 43.0465 152.371 42.8332 152.757 42.4065C153.157 41.9665 153.357 41.4265 153.357 40.7865C153.357 40.1198 153.151 39.5798 152.737 39.1665C152.337 38.7532 151.831 38.5465 151.217 38.5465C150.604 38.5465 150.097 38.7665 149.697 39.2065C149.311 39.6332 149.117 40.1598 149.117 40.7865C149.117 41.4398 149.317 41.9798 149.717 42.4065C150.131 42.8332 150.631 43.0465 151.217 43.0465ZM161.797 51.3265C160.677 51.3265 159.724 50.9598 158.937 50.2265C158.164 49.4798 157.777 48.5198 157.777 47.3465C157.777 46.2398 158.151 45.3065 158.897 44.5465C159.657 43.7732 160.624 43.3865 161.797 43.3865C162.931 43.3865 163.884 43.7598 164.657 44.5065C165.444 45.2398 165.837 46.1865 165.837 47.3465C165.837 48.4665 165.457 49.4132 164.697 50.1865C163.951 50.9465 162.984 51.3265 161.797 51.3265ZM161.817 49.6065C162.444 49.6065 162.957 49.3932 163.357 48.9665C163.757 48.5265 163.957 47.9932 163.957 47.3665C163.957 46.7132 163.751 46.1798 163.337 45.7665C162.924 45.3398 162.417 45.1265 161.817 45.1265C161.191 45.1265 160.677 45.3465 160.277 45.7865C159.877 46.2132 159.677 46.7398 159.677 47.3665C159.677 48.0198 159.884 48.5598 160.297 48.9865C160.711 49.3998 161.217 49.6065 161.817 49.6065ZM176.678 51.3265C175.118 51.3265 173.804 50.8532 172.738 49.9065L173.858 48.2265C174.631 48.9865 175.571 49.3665 176.678 49.3665C177.104 49.3665 177.438 49.2798 177.678 49.1065C177.918 48.9332 178.038 48.6998 178.038 48.4065C178.038 48.1798 177.898 47.9932 177.618 47.8465C177.351 47.6865 176.851 47.4798 176.118 47.2265C175.158 46.8932 174.418 46.4932 173.898 46.0265C173.391 45.5598 173.138 44.8932 173.138 44.0265C173.138 43.2265 173.458 42.5665 174.098 42.0465C174.751 41.5265 175.578 41.2665 176.578 41.2665C177.871 41.2665 179.018 41.6732 180.018 42.4865L178.898 44.2465C178.164 43.5532 177.351 43.2065 176.458 43.2065C176.191 43.2065 175.944 43.2798 175.718 43.4265C175.504 43.5598 175.398 43.7665 175.398 44.0465C175.398 44.4465 175.911 44.8398 176.938 45.2265C178.204 45.7198 178.998 46.0798 179.318 46.3065C179.984 46.7732 180.318 47.4598 180.318 48.3665C180.318 49.2332 180.004 49.9465 179.378 50.5065C178.764 51.0532 177.864 51.3265 176.678 51.3265ZM191.462 46.1665C191.462 46.4198 191.442 46.7065 191.402 47.0265H184.282C184.429 47.7332 184.749 48.2865 185.242 48.6865C185.749 49.0865 186.382 49.2865 187.142 49.2865C188.169 49.2865 188.989 48.9065 189.602 48.1465L191.162 49.4865C190.215 50.7132 188.835 51.3265 187.022 51.3265C185.529 51.3265 184.309 50.8665 183.362 49.9465C182.429 49.0265 181.962 47.8065 181.962 46.2865C181.962 44.7932 182.415 43.5865 183.322 42.6665C184.242 41.7332 185.422 41.2665 186.862 41.2665C188.222 41.2665 189.329 41.7265 190.182 42.6465C191.035 43.5665 191.462 44.7398 191.462 46.1665ZM188.382 43.8265C187.982 43.4665 187.469 43.2865 186.842 43.2865C186.215 43.2865 185.675 43.4598 185.222 43.8065C184.782 44.1532 184.482 44.6398 184.322 45.2665H189.202C189.055 44.6532 188.782 44.1732 188.382 43.8265ZM198.173 51.3265C196.719 51.3265 195.526 50.8598 194.593 49.9265C193.659 48.9932 193.193 47.7865 193.193 46.3065C193.193 44.8132 193.666 43.5998 194.613 42.6665C195.559 41.7332 196.773 41.2665 198.253 41.2665C199.039 41.2665 199.799 41.4265 200.533 41.7465C201.266 42.0532 201.873 42.4998 202.353 43.0865L200.833 44.4065C200.193 43.6598 199.373 43.2865 198.373 43.2865C197.506 43.2865 196.806 43.5665 196.273 44.1265C195.739 44.6732 195.473 45.3932 195.473 46.2865C195.473 47.1798 195.739 47.9065 196.273 48.4665C196.806 49.0132 197.506 49.2865 198.373 49.2865C199.439 49.2865 200.259 48.9065 200.833 48.1465L202.373 49.5065C201.439 50.7198 200.039 51.3265 198.173 51.3265ZM207.877 51.3265C205.437 51.3265 204.217 49.9998 204.217 47.3465V41.4065H206.457V46.7465C206.457 47.6932 206.604 48.3532 206.897 48.7265C207.204 49.0998 207.704 49.2865 208.397 49.2865C209.09 49.2865 209.677 49.0065 210.157 48.4465C210.65 47.8732 210.897 47.0865 210.897 46.0865V41.4065H213.137V51.1665H210.897V49.9465L210.857 49.9265C210.084 50.8598 209.09 51.3265 207.877 51.3265ZM215.98 51.1665V41.4065H218.22V42.8665H218.26C219.06 41.7998 220.066 41.2665 221.28 41.2665H221.56V43.7665C221.213 43.7398 220.986 43.7265 220.88 43.7265C220.053 43.7265 219.4 43.9932 218.92 44.5265C218.453 45.0465 218.22 45.7198 218.22 46.5465V51.1665H215.98ZM232.068 46.1665C232.068 46.4198 232.048 46.7065 232.008 47.0265H224.888C225.034 47.7332 225.354 48.2865 225.848 48.6865C226.354 49.0865 226.988 49.2865 227.748 49.2865C228.774 49.2865 229.594 48.9065 230.208 48.1465L231.768 49.4865C230.821 50.7132 229.441 51.3265 227.628 51.3265C226.134 51.3265 224.914 50.8665 223.968 49.9465C223.034 49.0265 222.568 47.8065 222.568 46.2865C222.568 44.7932 223.021 43.5865 223.928 42.6665C224.848 41.7332 226.028 41.2665 227.468 41.2665C228.828 41.2665 229.934 41.7265 230.788 42.6465C231.641 43.5665 232.068 44.7398 232.068 46.1665ZM228.988 43.8265C228.588 43.4665 228.074 43.2865 227.448 43.2865C226.821 43.2865 226.281 43.4598 225.828 43.8065C225.388 44.1532 225.088 44.6398 224.928 45.2665H229.808C229.661 44.6532 229.388 44.1732 228.988 43.8265ZM242.05 51.1665L238.73 41.4065H241.03L243.09 47.8865H243.13L245.05 41.4065H246.91L248.87 47.8865H248.91L250.97 41.4065H253.23L249.91 51.1665H247.85L245.97 45.0265H245.95L244.07 51.1665H242.05ZM257.479 39.5265C257.186 39.8198 256.833 39.9665 256.419 39.9665C256.006 39.9665 255.653 39.8198 255.359 39.5265C255.066 39.2332 254.919 38.8798 254.919 38.4665C254.919 38.0665 255.066 37.7198 255.359 37.4265C255.653 37.1332 256.006 36.9865 256.419 36.9865C256.833 36.9865 257.186 37.1332 257.479 37.4265C257.786 37.7198 257.939 38.0665 257.939 38.4665C257.939 38.8798 257.786 39.2332 257.479 39.5265ZM255.299 51.1665V41.4065H257.539V51.1665H255.299ZM263.508 51.3265C262.655 51.3265 261.988 51.0532 261.508 50.5065C261.028 49.9598 260.788 49.1532 260.788 48.0865V43.3065H259.588V41.4065H260.788V38.1665L263.028 37.9265V41.4065H265.888V43.3065H263.028V47.8665C263.028 48.3598 263.102 48.7132 263.248 48.9265C263.395 49.1265 263.635 49.2265 263.968 49.2265C264.408 49.2265 264.888 49.0865 265.408 48.8065L265.988 50.7465C265.282 51.1332 264.455 51.3265 263.508 51.3265ZM267.913 51.1665V36.4465H270.153V42.6265H270.173C271 41.7198 272.106 41.2665 273.493 41.2665C274.626 41.2665 275.513 41.5932 276.153 42.2465C276.806 42.8998 277.133 43.9265 277.133 45.3265V51.1665H274.893V45.9065C274.893 44.9732 274.713 44.3065 274.353 43.9065C274.006 43.4932 273.48 43.2865 272.773 43.2865C271.946 43.2865 271.3 43.5398 270.833 44.0465C270.38 44.5398 270.153 45.2598 270.153 46.2065V51.1665H267.913ZM292.018 51.2865C289.991 51.2865 288.291 50.6532 286.918 49.3865C285.544 48.1065 284.858 46.3465 284.858 44.1065C284.858 42.0132 285.491 40.2732 286.758 38.8865C288.024 37.4998 289.764 36.8065 291.978 36.8065C294.231 36.8065 296.098 37.7132 297.578 39.5265L295.798 41.0265C294.744 39.7332 293.471 39.0865 291.978 39.0865C290.618 39.0865 289.511 39.5532 288.658 40.4865C287.804 41.4065 287.378 42.6132 287.378 44.1065C287.378 45.5598 287.811 46.7465 288.678 47.6665C289.544 48.5732 290.658 49.0265 292.018 49.0265C293.524 49.0265 294.798 48.3798 295.838 47.0865L297.618 48.6065C296.178 50.3932 294.311 51.2865 292.018 51.2865ZM299.928 51.1665V36.4465H302.168V51.1665H299.928ZM307.557 39.5265C307.264 39.8198 306.911 39.9665 306.497 39.9665C306.084 39.9665 305.731 39.8198 305.437 39.5265C305.144 39.2332 304.997 38.8798 304.997 38.4665C304.997 38.0665 305.144 37.7198 305.437 37.4265C305.731 37.1332 306.084 36.9865 306.497 36.9865C306.911 36.9865 307.264 37.1332 307.557 37.4265C307.864 37.7198 308.017 38.0665 308.017 38.4665C308.017 38.8798 307.864 39.2332 307.557 39.5265ZM305.377 51.1665V41.4065H307.617V51.1665H305.377ZM310.687 55.1265V41.4065H312.927V42.5665H312.967C313.713 41.6998 314.74 41.2665 316.047 41.2665C317.407 41.2665 318.533 41.7465 319.427 42.7065C320.32 43.6532 320.767 44.8598 320.767 46.3265C320.767 47.8198 320.32 49.0265 319.427 49.9465C318.533 50.8665 317.4 51.3265 316.027 51.3265C314.733 51.3265 313.713 50.8732 312.967 49.9665L312.927 49.9865V55.1265H310.687ZM313.647 48.4665C314.193 49.0132 314.873 49.2865 315.687 49.2865C316.5 49.2865 317.167 49.0132 317.687 48.4665C318.22 47.9198 318.487 47.2132 318.487 46.3465C318.487 45.4265 318.213 44.6865 317.667 44.1265C317.133 43.5665 316.467 43.2865 315.667 43.2865C314.84 43.2865 314.16 43.5798 313.627 44.1665C313.093 44.7398 312.827 45.4665 312.827 46.3465C312.827 47.2132 313.1 47.9198 313.647 48.4665Z" fill="#5E5F73"/>
<rect x="497" y="9" width="130" height="69.3333" rx="8" fill="#F6F6F7"/>
<rect x="566.833" y="25.9668" width="45.8" height="35.6811" rx="4.5" fill="#FAFBFB" stroke="#2D9F70"/>
<path d="M566.333 29.4668C566.333 27.2577 568.124 25.4668 570.333 25.4668H609.134C611.343 25.4668 613.133 27.2577 613.133 29.4668V43.1749H566.333V29.4668Z" fill="#2D9F70"/>
<path d="M578.219 38.068V32.6184L577.023 33.5232L576.357 32.4728L578.51 30.9232H579.644V38.068H578.219Z" fill="white"/>
<path d="M583.733 38.1616C582.894 38.1616 582.218 37.8357 581.705 37.184C581.199 36.5322 580.946 35.6378 580.946 34.5008C580.946 33.3984 581.196 32.5144 581.695 31.8488C582.201 31.1762 582.88 30.84 583.733 30.84C584.572 30.84 585.245 31.1658 585.751 31.8176C586.264 32.4624 586.52 33.3568 586.52 34.5008C586.52 35.6032 586.271 36.4906 585.772 37.1632C585.272 37.8288 584.593 38.1616 583.733 38.1616ZM583.733 36.8408C584.156 36.8408 584.485 36.6397 584.721 36.2376C584.957 35.8285 585.075 35.2496 585.075 34.5008C585.075 33.7658 584.957 33.1904 584.721 32.7744C584.485 32.3584 584.156 32.1504 583.733 32.1504C583.317 32.1504 582.988 32.3549 582.745 32.764C582.509 33.173 582.392 33.752 582.392 34.5008C582.392 35.2218 582.509 35.7938 582.745 36.2168C582.988 36.6328 583.317 36.8408 583.733 36.8408Z" fill="white"/>
<path d="M590.264 38.1616C589.425 38.1616 588.749 37.8357 588.236 37.184C587.729 36.5322 587.476 35.6378 587.476 34.5008C587.476 33.3984 587.726 32.5144 588.225 31.8488C588.731 31.1762 589.411 30.84 590.264 30.84C591.103 30.84 591.775 31.1658 592.281 31.8176C592.794 32.4624 593.051 33.3568 593.051 34.5008C593.051 35.6032 592.801 36.4906 592.302 37.1632C591.803 37.8288 591.123 38.1616 590.264 38.1616ZM590.264 36.8408C590.687 36.8408 591.016 36.6397 591.252 36.2376C591.487 35.8285 591.605 35.2496 591.605 34.5008C591.605 33.7658 591.487 33.1904 591.252 32.7744C591.016 32.3584 590.687 32.1504 590.264 32.1504C589.848 32.1504 589.518 32.3549 589.276 32.764C589.04 33.173 588.922 33.752 588.922 34.5008C588.922 35.2218 589.04 35.7938 589.276 36.2168C589.518 36.6328 589.848 36.8408 590.264 36.8408Z" fill="white"/>
<path d="M597.709 38.3176L596.68 37.8704L599.956 30.5176L600.985 30.9648L597.709 38.3176ZM596.024 34.74C595.435 34.74 594.936 34.5458 594.527 34.1576C594.125 33.7693 593.924 33.2701 593.924 32.66C593.924 32.0845 594.118 31.5992 594.506 31.204C594.901 30.8018 595.407 30.6008 596.024 30.6008C596.614 30.6008 597.11 30.7949 597.512 31.1832C597.921 31.5645 598.125 32.0568 598.125 32.66C598.125 33.2424 597.928 33.7346 597.532 34.1368C597.137 34.5389 596.635 34.74 596.024 34.74ZM596.024 33.7728C596.33 33.7728 596.576 33.6688 596.763 33.4608C596.95 33.2458 597.044 32.9824 597.044 32.6704C597.044 32.3514 596.947 32.0914 596.752 31.8904C596.558 31.6893 596.316 31.5888 596.024 31.5888C595.726 31.5888 595.484 31.6928 595.296 31.9008C595.109 32.1088 595.016 32.3653 595.016 32.6704C595.016 32.9893 595.113 33.2528 595.307 33.4608C595.501 33.6688 595.74 33.7728 596.024 33.7728ZM601.62 38.1616C601.03 38.1616 600.531 37.9674 600.122 37.5792C599.72 37.1909 599.519 36.6917 599.519 36.0816C599.519 35.4992 599.713 35.0104 600.101 34.6152C600.496 34.213 601.003 34.012 601.62 34.012C602.209 34.012 602.705 34.2061 603.107 34.5944C603.516 34.9757 603.72 35.4714 603.72 36.0816C603.72 36.664 603.523 37.1562 603.128 37.5584C602.739 37.9605 602.237 38.1616 601.62 38.1616ZM601.63 37.184C601.928 37.184 602.171 37.08 602.358 36.872C602.552 36.657 602.649 36.397 602.649 36.092C602.649 35.773 602.549 35.513 602.348 35.312C602.154 35.1109 601.914 35.0104 601.63 35.0104C601.332 35.0104 601.086 35.1144 600.892 35.3224C600.704 35.5304 600.611 35.7869 600.611 36.092C600.611 36.4109 600.708 36.6744 600.902 36.8824C601.103 37.0834 601.346 37.184 601.63 37.184Z" fill="white"/>
<path d="M575.759 55.495C574.725 55.495 573.828 55.1033 573.065 54.3198L573.949 53.2382C574.212 53.5364 574.507 53.7652 574.833 53.9246C575.166 54.0841 575.485 54.1638 575.79 54.1638C576.129 54.1638 576.389 54.0945 576.57 53.9558C576.75 53.8102 576.84 53.6196 576.84 53.3838C576.84 53.1273 576.747 52.9297 576.559 52.791C576.379 52.6524 576.046 52.4998 575.561 52.3334C575.297 52.2433 575.072 52.1601 574.885 52.0838C574.705 52.0006 574.507 51.8932 574.292 51.7614C574.084 51.6297 573.914 51.491 573.783 51.3454C573.651 51.1929 573.54 51.0057 573.45 50.7838C573.367 50.555 573.325 50.3054 573.325 50.035C573.325 49.4457 573.554 48.95 574.011 48.5478C574.469 48.1388 575.031 47.9308 575.696 47.9238C576.597 47.9238 577.429 48.2358 578.192 48.8598L577.339 49.9622C576.743 49.4769 576.206 49.2342 575.727 49.2342C575.464 49.2342 575.249 49.3001 575.083 49.4318C574.923 49.5636 574.84 49.7438 574.833 49.9726C574.833 50.1876 574.92 50.3574 575.093 50.4822C575.273 50.607 575.603 50.763 576.081 50.9502C576.844 51.2484 577.343 51.4772 577.579 51.6366C578.112 51.9972 578.379 52.5206 578.379 53.207C578.379 53.7201 578.241 54.1569 577.963 54.5174C577.686 54.871 577.357 55.1241 576.975 55.2766C576.594 55.4222 576.188 55.495 575.759 55.495Z" fill="#2D9F70"/>
<path d="M584.193 52.8118C584.193 52.9713 584.183 53.1342 584.162 53.3006H580.595C580.678 53.6057 580.838 53.8449 581.073 54.0182C581.309 54.1916 581.597 54.2782 581.936 54.2782C582.45 54.2782 582.862 54.0876 583.174 53.7062L584.058 54.5278C583.559 55.1726 582.82 55.495 581.843 55.495C581.059 55.495 580.418 55.2524 579.919 54.767C579.427 54.2817 579.18 53.6438 579.18 52.8534C579.18 52.0838 579.42 51.4564 579.898 50.971C580.383 50.4857 581.004 50.243 581.76 50.243C582.474 50.243 583.056 50.4857 583.507 50.971C583.964 51.4494 584.193 52.063 584.193 52.8118ZM581.749 51.4286C581.472 51.4286 581.229 51.5084 581.021 51.6678C580.82 51.8204 580.682 52.0388 580.605 52.323H582.841C582.689 51.7268 582.325 51.4286 581.749 51.4286Z" fill="#2D9F70"/>
<path d="M587.549 57.5438C586.758 57.5438 586.065 57.374 585.469 57.0342L585.791 55.8798C586.36 56.1988 586.911 56.3582 587.445 56.3582C587.895 56.3582 588.246 56.2508 588.495 56.0358C588.745 55.8209 588.87 55.554 588.87 55.235V54.7254H588.849C588.474 55.1137 587.982 55.3078 587.372 55.3078C586.672 55.3078 586.093 55.0756 585.635 54.611C585.178 54.1465 584.949 53.5468 584.949 52.8118C584.949 52.063 585.171 51.4494 585.614 50.971C586.058 50.4857 586.62 50.243 587.299 50.243C587.909 50.243 588.419 50.4441 588.828 50.8462H588.849V50.3158H590.211V54.819C590.211 56.6356 589.324 57.5438 587.549 57.5438ZM586.696 53.727C586.939 53.9628 587.247 54.0806 587.622 54.0806C587.996 54.0806 588.301 53.9593 588.537 53.7166C588.779 53.467 588.901 53.1481 588.901 52.7598C588.901 52.3785 588.779 52.07 588.537 51.8342C588.294 51.5916 587.989 51.4702 587.622 51.4702C587.24 51.4702 586.928 51.5916 586.686 51.8342C586.45 52.0769 586.332 52.3889 586.332 52.7702C586.332 53.1654 586.453 53.4844 586.696 53.727Z" fill="#2D9F70"/>
<path d="M593.285 55.495C592.037 55.495 591.413 54.7913 591.413 53.3838V50.3158H592.765V53.0302C592.765 53.4878 592.834 53.8102 592.973 53.9974C593.119 54.1777 593.354 54.2678 593.68 54.2678C593.992 54.2678 594.256 54.1396 594.471 53.883C594.692 53.6196 594.803 53.2556 594.803 52.791V50.3158H596.176V55.4014H594.803V54.7982L594.783 54.7878C594.394 55.2593 593.895 55.495 593.285 55.495Z" fill="#2D9F70"/>
<path d="M597.489 55.4014V50.3158H598.851V51.0542H598.872C599.274 50.5134 599.784 50.243 600.401 50.243H600.505V51.7302C600.408 51.7233 600.286 51.7198 600.141 51.7198C599.732 51.7198 599.413 51.8446 599.184 52.0942C598.962 52.3369 598.851 52.6558 598.851 53.051V55.4014H597.489Z" fill="#2D9F70"/>
<path d="M603.649 55.495C602.845 55.495 602.193 55.2489 601.694 54.7566C601.195 54.2644 600.945 53.6334 600.945 52.8638C600.945 52.1012 601.195 51.4737 601.694 50.9814C602.193 50.4892 602.845 50.243 603.649 50.243C604.44 50.243 605.085 50.4857 605.584 50.971C606.09 51.4564 606.343 52.0873 606.343 52.8638C606.343 53.6404 606.09 54.2748 605.584 54.767C605.085 55.2524 604.44 55.495 603.649 55.495ZM603.649 54.2678C604.017 54.2678 604.325 54.1361 604.575 53.8726C604.831 53.6092 604.96 53.2729 604.96 52.8638C604.96 52.4478 604.835 52.1116 604.585 51.855C604.336 51.5916 604.024 51.4598 603.649 51.4598C603.261 51.4598 602.942 51.595 602.693 51.8654C602.45 52.1289 602.329 52.4617 602.329 52.8638C602.329 53.266 602.45 53.6022 602.693 53.8726C602.942 54.1361 603.261 54.2678 603.649 54.2678Z" fill="#2D9F70"/>
<path fill-rule="evenodd" clip-rule="evenodd" d="M552.466 29.8674C552.448 25.9981 549.306 22.8667 545.433 22.8667C544.47 22.8667 543.527 23.0495 542.718 23.4101L517.088 34.2939C513.436 35.8388 510.867 39.4584 510.867 43.6671V57.4329C510.867 61.317 514.015 64.4667 517.901 64.4667C518.886 64.4667 519.824 64.2628 520.676 63.8966L546.196 53.061C549.875 51.5265 552.467 47.8948 552.467 43.6671L552.466 29.8674Z" fill="#FC4C02"/>
<path fill-rule="evenodd" clip-rule="evenodd" d="M528.786 49.1073C528.433 49.1073 528.146 48.8347 528.146 48.4985V35.6368C528.146 35.3004 528.433 35.0273 528.786 35.0273C529.14 35.0273 529.426 35.3004 529.426 35.6368V48.4985C529.426 48.8347 529.14 49.1073 528.786 49.1073Z" fill="#FEFEFE"/>
<path fill-rule="evenodd" clip-rule="evenodd" d="M533.907 48.5138V38.822C533.907 38.494 533.62 38.228 533.265 38.228C532.913 38.228 532.627 38.494 532.627 38.822V48.5138C532.627 48.8418 532.913 49.108 533.265 49.108C533.62 49.108 533.907 48.8418 533.907 48.5138Z" fill="#FEFEFE"/>
<path fill-rule="evenodd" clip-rule="evenodd" d="M533.907 35.6859V35.649C533.907 35.3059 533.62 35.0273 533.265 35.0273C532.913 35.0273 532.627 35.3059 532.627 35.649V35.6859C532.627 36.0293 532.913 36.3073 533.265 36.3073C533.62 36.3073 533.907 36.0293 533.907 35.6859Z" fill="#FEFEFE"/>
<path fill-rule="evenodd" clip-rule="evenodd" d="M524.774 47.4239C525.004 47.1845 525.004 46.7961 524.774 46.5571C524.545 46.3173 524.172 46.3173 523.944 46.5571C522.248 48.3237 519.49 48.3237 517.794 46.5571C516.098 44.7879 516.098 41.9111 517.794 40.1432C518.615 39.287 519.707 38.8152 520.868 38.8152C522.03 38.8152 523.121 39.287 523.942 40.1432C524.172 40.3832 524.545 40.3832 524.774 40.1432C525.004 39.9032 525.004 39.5155 524.774 39.2758C523.731 38.1875 522.344 37.5884 520.868 37.5884C519.393 37.5884 518.006 38.1875 516.962 39.2758C514.808 41.5218 514.808 45.1766 516.962 47.4239C518.039 48.5472 519.453 49.1084 520.869 49.1084C522.283 49.1084 523.697 48.5472 524.774 47.4239Z" fill="#FEFEFE"/>
<path fill-rule="evenodd" clip-rule="evenodd" d="M537.693 51.0656V43.2501C537.693 40.7929 539.727 38.7935 542.227 38.7935C544.727 38.7935 546.761 40.7929 546.761 43.2501C546.761 45.7077 544.727 47.7063 542.227 47.7063C540.786 47.7063 539.81 47.1649 539.803 47.1619C539.511 46.9935 539.134 47.0888 538.963 47.3762C538.793 47.6639 538.891 48.0327 539.182 48.2019C539.233 48.2308 540.436 48.9119 542.227 48.9119C545.403 48.9119 547.987 46.372 547.987 43.2501C547.987 40.1281 545.403 37.5884 542.227 37.5884C539.05 37.5884 536.467 40.1281 536.467 43.2501V51.0656C536.467 51.3979 536.742 51.6684 537.08 51.6684C537.418 51.6684 537.693 51.3979 537.693 51.0656Z" fill="#FEFEFE"/>
<path d="M213.225 135.333L207.625 117.583H211.375L214.825 129.558H214.875L218.05 117.583H221.75L224.875 129.533H224.95L228.4 117.583H232.15L226.55 135.333H223.3L219.95 122.708H219.9L216.475 135.333H213.225ZM244.072 129.108C244.072 129.492 244.047 129.883 243.997 130.283H235.422C235.622 131.017 236.006 131.592 236.572 132.008C237.139 132.425 237.831 132.633 238.647 132.633C239.881 132.633 240.872 132.175 241.622 131.258L243.747 133.233C242.547 134.783 240.772 135.558 238.422 135.558C236.539 135.558 234.997 134.975 233.797 133.808C232.614 132.642 232.022 131.108 232.022 129.208C232.022 127.358 232.597 125.85 233.747 124.683C234.914 123.517 236.406 122.933 238.222 122.933C239.939 122.933 241.339 123.517 242.422 124.683C243.522 125.833 244.072 127.308 244.072 129.108ZM238.197 125.783C237.531 125.783 236.947 125.975 236.447 126.358C235.964 126.725 235.631 127.25 235.447 127.933H240.822C240.456 126.5 239.581 125.783 238.197 125.783ZM258.159 135.558C256.459 135.558 255.059 134.975 253.959 133.808C252.876 132.642 252.334 131.125 252.334 129.258C252.334 127.425 252.876 125.917 253.959 124.733C255.059 123.533 256.434 122.933 258.084 122.933C259.601 122.933 260.801 123.467 261.684 124.533L261.734 124.508V123.108H265.009V135.333H261.884V133.883L261.834 133.858C260.951 134.992 259.726 135.558 258.159 135.558ZM258.784 132.608C259.651 132.608 260.384 132.3 260.984 131.683C261.584 131.067 261.884 130.267 261.884 129.283C261.884 128.3 261.584 127.483 260.984 126.833C260.401 126.183 259.668 125.858 258.784 125.858C257.884 125.858 257.134 126.175 256.534 126.808C255.951 127.425 255.659 128.25 255.659 129.283C255.659 130.267 255.951 131.067 256.534 131.683C257.118 132.3 257.868 132.608 258.784 132.608ZM273.747 135.558C271.914 135.558 270.405 134.975 269.222 133.808C268.039 132.642 267.447 131.125 267.447 129.258C267.447 127.375 268.039 125.85 269.222 124.683C270.405 123.517 271.947 122.933 273.847 122.933C274.847 122.933 275.805 123.125 276.722 123.508C277.639 123.875 278.405 124.417 279.022 125.133L276.872 127.158C276.172 126.292 275.239 125.858 274.072 125.858C273.089 125.858 272.289 126.175 271.672 126.808C271.072 127.425 270.772 128.233 270.772 129.233C270.772 130.25 271.072 131.067 271.672 131.683C272.289 132.3 273.089 132.608 274.072 132.608C275.272 132.608 276.23 132.167 276.947 131.283L279.072 133.333C277.872 134.817 276.097 135.558 273.747 135.558ZM286.955 135.558C285.122 135.558 283.613 134.975 282.43 133.808C281.247 132.642 280.655 131.125 280.655 129.258C280.655 127.375 281.247 125.85 282.43 124.683C283.613 123.517 285.155 122.933 287.055 122.933C288.055 122.933 289.013 123.125 289.93 123.508C290.847 123.875 291.613 124.417 292.23 125.133L290.08 127.158C289.38 126.292 288.447 125.858 287.28 125.858C286.297 125.858 285.497 126.175 284.88 126.808C284.28 127.425 283.98 128.233 283.98 129.233C283.98 130.25 284.28 131.067 284.88 131.683C285.497 132.3 286.297 132.608 287.28 132.608C288.48 132.608 289.438 132.167 290.155 131.283L292.28 133.333C291.08 134.817 289.305 135.558 286.955 135.558ZM305.913 129.108C305.913 129.492 305.888 129.883 305.838 130.283H297.263C297.463 131.017 297.846 131.592 298.413 132.008C298.98 132.425 299.671 132.633 300.488 132.633C301.721 132.633 302.713 132.175 303.463 131.258L305.588 133.233C304.388 134.783 302.613 135.558 300.263 135.558C298.38 135.558 296.838 134.975 295.638 133.808C294.455 132.642 293.863 131.108 293.863 129.208C293.863 127.358 294.438 125.85 295.588 124.683C296.755 123.517 298.246 122.933 300.063 122.933C301.78 122.933 303.18 123.517 304.263 124.683C305.363 125.833 305.913 127.308 305.913 129.108ZM300.038 125.783C299.371 125.783 298.788 125.975 298.288 126.358C297.805 126.725 297.471 127.25 297.288 127.933H302.663C302.296 126.5 301.421 125.783 300.038 125.783ZM308.454 140.283V123.108H311.729V124.508H311.779C312.679 123.458 313.904 122.933 315.454 122.933C317.121 122.933 318.496 123.533 319.579 124.733C320.679 125.917 321.229 127.425 321.229 129.258C321.229 131.125 320.679 132.642 319.579 133.808C318.479 134.975 317.071 135.558 315.354 135.558C313.854 135.558 312.662 135.025 311.779 133.958L311.729 133.983V140.283H308.454ZM312.479 131.683C313.096 132.3 313.862 132.608 314.779 132.608C315.696 132.608 316.446 132.3 317.029 131.683C317.612 131.05 317.904 130.25 317.904 129.283C317.904 128.25 317.604 127.425 317.004 126.808C316.404 126.175 315.654 125.858 314.754 125.858C313.821 125.858 313.054 126.183 312.454 126.833C311.871 127.467 311.579 128.283 311.579 129.283C311.579 130.267 311.879 131.067 312.479 131.683ZM327.586 135.558C326.502 135.558 325.652 135.217 325.036 134.533C324.419 133.833 324.111 132.817 324.111 131.483V125.833H322.661V123.108H324.111V119.133L327.386 118.783V123.108H330.686V125.833H327.386V131.008C327.386 131.558 327.461 131.958 327.611 132.208C327.777 132.458 328.052 132.583 328.436 132.583C328.902 132.583 329.419 132.442 329.986 132.158L330.811 134.783C329.861 135.3 328.786 135.558 327.586 135.558ZM344.585 135.558C342.885 135.558 341.485 134.975 340.385 133.808C339.302 132.642 338.76 131.125 338.76 129.258C338.76 127.425 339.302 125.917 340.385 124.733C341.485 123.533 342.86 122.933 344.51 122.933C346.027 122.933 347.227 123.467 348.11 124.533L348.16 124.508V123.108H351.435V135.333H348.31V133.883L348.26 133.858C347.377 134.992 346.152 135.558 344.585 135.558ZM345.21 132.608C346.077 132.608 346.81 132.3 347.41 131.683C348.01 131.067 348.31 130.267 348.31 129.283C348.31 128.3 348.01 127.483 347.41 126.833C346.827 126.183 346.093 125.858 345.21 125.858C344.31 125.858 343.56 126.175 342.96 126.808C342.377 127.425 342.085 128.25 342.085 129.283C342.085 130.267 342.377 131.067 342.96 131.683C343.543 132.3 344.293 132.608 345.21 132.608ZM354.698 135.333V116.933H357.973V135.333H354.698ZM361.534 135.333V116.933H364.809V135.333H361.534ZM380.266 135.558C378.432 135.558 376.924 134.975 375.741 133.808C374.557 132.642 373.966 131.125 373.966 129.258C373.966 127.375 374.557 125.85 375.741 124.683C376.924 123.517 378.466 122.933 380.366 122.933C381.366 122.933 382.324 123.125 383.241 123.508C384.157 123.875 384.924 124.417 385.541 125.133L383.391 127.158C382.691 126.292 381.757 125.858 380.591 125.858C379.607 125.858 378.807 126.175 378.191 126.808C377.591 127.425 377.291 128.233 377.291 129.233C377.291 130.25 377.591 131.067 378.191 131.683C378.807 132.3 379.607 132.608 380.591 132.608C381.791 132.608 382.749 132.167 383.466 131.283L385.591 133.333C384.391 134.817 382.616 135.558 380.266 135.558ZM392.974 135.558C391.274 135.558 389.874 134.975 388.774 133.808C387.69 132.642 387.149 131.125 387.149 129.258C387.149 127.425 387.69 125.917 388.774 124.733C389.874 123.533 391.249 122.933 392.899 122.933C394.415 122.933 395.615 123.467 396.499 124.533L396.549 124.508V123.108H399.824V135.333H396.699V133.883L396.649 133.858C395.765 134.992 394.54 135.558 392.974 135.558ZM393.599 132.608C394.465 132.608 395.199 132.3 395.799 131.683C396.399 131.067 396.699 130.267 396.699 129.283C396.699 128.3 396.399 127.483 395.799 126.833C395.215 126.183 394.482 125.858 393.599 125.858C392.699 125.858 391.949 126.175 391.349 126.808C390.765 127.425 390.474 128.25 390.474 129.283C390.474 130.267 390.765 131.067 391.349 131.683C391.932 132.3 392.682 132.608 393.599 132.608ZM402.937 135.333V123.108H406.212V124.883H406.262C407.228 123.583 408.453 122.933 409.937 122.933H410.187V126.508C409.953 126.492 409.662 126.483 409.312 126.483C408.328 126.483 407.562 126.783 407.012 127.383C406.478 127.967 406.212 128.733 406.212 129.683V135.333H402.937ZM417.144 135.558C415.444 135.558 414.044 134.975 412.944 133.808C411.844 132.642 411.294 131.125 411.294 129.258C411.294 127.425 411.844 125.917 412.944 124.733C414.044 123.533 415.419 122.933 417.069 122.933C418.619 122.933 419.852 123.467 420.769 124.533H420.819V116.933H424.069V135.333H420.944V133.833H420.919C420.036 134.983 418.777 135.558 417.144 135.558ZM415.494 131.683C416.077 132.3 416.827 132.608 417.744 132.608C418.661 132.608 419.419 132.3 420.019 131.683C420.636 131.067 420.944 130.267 420.944 129.283C420.944 128.3 420.644 127.483 420.044 126.833C419.444 126.183 418.677 125.858 417.744 125.858C416.844 125.858 416.094 126.175 415.494 126.808C414.911 127.425 414.619 128.25 414.619 129.283C414.619 130.25 414.911 131.05 415.494 131.683ZM431.276 135.558C429.36 135.558 427.71 134.958 426.326 133.758L427.901 131.483C428.918 132.417 430.051 132.883 431.301 132.883C431.768 132.883 432.126 132.792 432.376 132.608C432.643 132.425 432.776 132.183 432.776 131.883C432.776 131.633 432.618 131.425 432.301 131.258C432.001 131.075 431.426 130.842 430.576 130.558C429.376 130.158 428.443 129.667 427.776 129.083C427.126 128.483 426.801 127.642 426.801 126.558C426.801 125.475 427.218 124.6 428.051 123.933C428.885 123.267 429.943 122.933 431.226 122.933C432.876 122.933 434.36 123.442 435.676 124.458L434.076 126.883C433.193 126.017 432.218 125.583 431.151 125.583C430.851 125.583 430.585 125.658 430.351 125.808C430.118 125.958 430.001 126.183 430.001 126.483C430.001 126.9 430.601 127.333 431.801 127.783C432.468 128.033 432.96 128.225 433.276 128.358C433.593 128.475 433.968 128.658 434.401 128.908C434.835 129.142 435.135 129.375 435.301 129.608C435.485 129.842 435.643 130.142 435.776 130.508C435.926 130.858 436.001 131.275 436.001 131.758C436.001 132.892 435.593 133.808 434.776 134.508C433.976 135.208 432.81 135.558 431.276 135.558Z" fill="black"/>
<rect x="219.9" y="170.343" width="9.79855" height="16.9809" fill="#FF5F00"/>
<path d="M220.522 178.835C220.518 175.521 222.096 172.389 224.799 170.343C220.208 166.863 213.614 167.37 209.652 171.507C205.691 175.644 205.691 182.023 209.652 186.16C213.614 190.297 220.208 190.804 224.799 187.324C222.096 185.278 220.519 182.148 220.522 178.835Z" fill="#EB001B"/>
<path d="M242.918 178.835C242.918 182.97 240.47 186.741 236.614 188.548C232.757 190.355 228.169 189.879 224.799 187.324C227.5 185.277 229.078 182.147 229.078 178.834C229.078 175.52 227.5 172.391 224.799 170.343C228.169 167.788 232.757 167.313 236.614 169.119C240.47 170.926 242.918 174.698 242.918 178.832V178.835Z" fill="#F79E1B"/>
<path fill-rule="evenodd" clip-rule="evenodd" d="M241.931 185.219V185.775H241.842V185.219H241.625V185.104H242.132V185.219H241.931ZM242.919 185.105V185.775L242.829 185.779V185.272L242.662 185.708H242.547L242.38 185.272V185.775H242.269V185.105H242.406L242.585 185.583L242.765 185.105H242.919Z" fill="#F79E1B"/>
<mask id="mask0_70_4181" style="mask-type:luminance" maskUnits="userSpaceOnUse" x="253" y="172" width="40" height="14">
<path fill-rule="evenodd" clip-rule="evenodd" d="M279.349 172.083C276.259 172.102 274.087 173.871 274.07 176.399C274.049 178.28 275.635 179.328 276.831 179.953C278.058 180.593 278.471 181.004 278.466 181.576C278.457 182.452 277.486 182.838 276.578 182.853C274.993 182.88 274.073 182.394 273.34 182.028L272.769 184.89C273.505 185.252 274.865 185.568 276.275 185.583C279.588 185.583 281.755 183.831 281.765 181.116C281.779 177.67 277.317 177.48 277.348 175.94C277.358 175.472 277.774 174.974 278.685 174.847C279.136 174.784 280.383 174.735 281.794 175.431L282.348 172.662C281.598 172.371 280.637 172.09 279.443 172.083H279.349ZM287.676 172.322C287.07 172.322 286.56 172.699 286.333 173.28L281.601 185.38H284.912L285.57 183.429H289.615L289.996 185.38H292.913L290.367 172.322H287.676ZM288.138 175.85L289.093 180.753H286.478L288.138 175.85ZM270.058 172.322L267.449 185.38H270.603L273.21 172.322H270.058ZM265.392 172.322L262.11 181.209L260.782 173.653C260.627 172.809 260.011 172.322 259.328 172.322H253.962L253.888 172.701C254.989 172.957 256.241 173.371 256.999 173.812C257.463 174.082 257.595 174.317 257.748 174.959L260.262 185.379H263.595L268.704 172.322H265.392Z" fill="white"/>
</mask>
<g mask="url(#mask0_70_4181)">
<path fill-rule="evenodd" clip-rule="evenodd" d="M279.443 172.083L279.551 172.085C280.622 172.106 281.501 172.346 282.205 172.608L282.348 172.662L281.794 175.431L281.725 175.397C280.388 174.759 279.21 174.782 278.732 174.841L278.685 174.847L278.63 174.855C277.775 174.992 277.374 175.462 277.349 175.912L277.348 175.94L277.348 175.986C277.405 177.469 281.692 177.7 281.764 181.014L281.765 181.116L281.764 181.197C281.712 183.839 279.598 185.549 276.373 185.583L276.275 185.583L276.185 185.582C274.837 185.555 273.547 185.258 272.817 184.913L272.769 184.89L273.34 182.028L273.596 182.156C274.275 182.49 275.135 182.861 276.491 182.854L276.578 182.853L276.623 182.852C277.502 182.826 278.425 182.45 278.465 181.618L278.466 181.576L278.466 181.546C278.456 181.009 278.066 180.611 276.955 180.018L276.699 179.883C275.537 179.259 274.086 178.237 274.069 176.466L274.07 176.399L274.071 176.323C274.13 173.861 276.246 172.136 279.258 172.085L279.349 172.083H279.443ZM273.21 172.322L270.603 185.38H267.449L270.058 172.322H273.21ZM259.328 172.322L259.369 172.323C260.022 172.341 260.606 172.807 260.772 173.603L260.782 173.653L262.11 181.209L265.392 172.322H268.704L263.595 185.379H260.262L257.735 174.905C257.592 174.322 257.458 174.088 257.039 173.836L256.999 173.812L256.928 173.772C256.189 173.359 255.031 172.975 253.988 172.725L253.888 172.701L253.962 172.322H259.328ZM290.367 172.322L292.913 185.38H289.996L289.615 183.429H285.57L284.912 185.38H281.601L286.333 173.28L286.351 173.236C286.58 172.695 287.059 172.341 287.629 172.323L287.676 172.322H290.367Z" fill="url(#paint0_linear_70_4181)"/>
<path fill-rule="evenodd" clip-rule="evenodd" d="M287.887 175.899L288.79 180.888H286.317L287.887 175.899Z" fill="url(#paint1_linear_70_4181)"/>
</g>
<path d="M333.15 189.634H322.067H310.85V178.726V168.034H321.918H333.15V178.833V189.634Z" fill="white"/>
<path d="M333.15 189.634V186.211H330.459L329.075 184.729L327.682 186.211H318.812V179.297H315.951L319.5 171.513H322.926L324.148 174.18V171.513H328.387L329.123 173.523L329.864 171.513H333.15V168.034H310.85V189.634H333.15ZM330.913 185.345H333.15L330.191 182.306L333.15 179.3H330.948L329.121 181.234L327.311 179.299H325.073L328.015 182.321L325.073 185.344H327.247L329.084 183.392L330.911 185.344L330.913 185.345ZM331.436 182.31L333.15 184.075V180.557L331.436 182.308V182.31ZM321.462 183.946V183.005H324.988V181.641H321.462V180.699H325.073V179.3H319.76V185.345H325.073V183.946H321.462ZM331.465 178.424H333.15V172.378H330.526L329.127 176.144L327.738 172.378H325.072V178.424H326.757V174.192L328.361 178.427H329.859L331.462 174.187V178.427L331.465 178.424ZM323.157 178.424H325.074L322.319 172.378H320.125L317.37 178.424H319.242L319.759 177.214H322.63L323.156 178.424H323.157ZM322.043 175.858H320.347L321.195 173.882L322.042 175.858H322.043Z" fill="#0079C1"/>
<path d="M363.835 176.432V172.758H351.087V184.908H363.835V181.345C363.627 181.232 363.444 181.101 363.292 180.951L363.284 180.943C363.07 180.725 362.975 180.448 363.016 180.163C363.053 179.897 363.195 179.669 363.425 179.503C363.567 179.398 363.707 179.339 363.834 179.306V179.038C363.833 179.037 363.831 179.035 363.83 179.034C363.419 178.694 363.201 178.251 363.201 177.753C363.201 177.316 363.34 176.941 363.615 176.638C363.683 176.564 363.757 176.496 363.835 176.432ZM357.207 179.192C357.207 180.139 356.453 180.895 355.219 180.895C354.274 180.895 353.296 180.384 353.296 179.047V175.533L354.354 175.311V178.902C354.354 179.36 354.442 179.925 355.268 179.925C356.005 179.925 356.149 179.444 356.149 178.817V175.533L357.207 175.311V179.192ZM359.875 180.895C359.451 180.895 359.057 180.768 358.728 180.552V181.925L357.71 182.148V176.78L358.731 176.545V177.116C359.06 176.897 359.449 176.775 359.875 176.775C361.022 176.775 361.951 177.697 361.951 178.835C361.951 179.972 361.022 180.895 359.875 180.895Z" fill="#F4921F"/>
<path d="M359.81 177.656C359.129 177.656 358.632 178.199 358.632 178.833C358.632 179.467 359.129 180.009 359.81 180.009C360.492 180.009 360.989 179.466 360.989 178.833C360.988 178.199 360.491 177.656 359.81 177.656Z" fill="#F4921F"/>
<path d="M366.89 178.759C366.631 178.626 366.28 178.519 365.834 178.44C365.508 178.384 365.26 178.321 365.091 178.254C364.921 178.186 364.806 178.108 364.744 178.02C364.681 177.933 364.65 177.835 364.65 177.727C364.65 177.552 364.742 177.415 364.926 177.316C365.11 177.217 365.345 177.167 365.63 177.167C365.867 177.167 366.075 177.197 366.253 177.256C366.431 177.316 366.594 177.419 366.743 177.566C366.826 177.64 366.927 177.686 367.046 177.706C367.164 177.726 367.265 177.707 367.349 177.651C367.443 177.589 367.494 177.512 367.5 177.422C367.506 177.331 367.473 177.243 367.402 177.159C367.224 176.944 366.985 176.775 366.685 176.654C366.385 176.532 366.039 176.471 365.648 176.471C365.339 176.471 365.046 176.518 364.77 176.611C364.494 176.704 364.27 176.846 364.098 177.036C363.926 177.225 363.84 177.464 363.84 177.753C363.84 178.075 363.976 178.35 364.249 178.576C364.522 178.802 364.959 178.969 365.559 179.076C366.022 179.156 366.345 179.259 366.529 179.386C366.713 179.513 366.805 179.668 366.805 179.849C366.799 180.03 366.703 180.179 366.516 180.298C366.329 180.417 366.049 180.477 365.674 180.477C365.395 180.477 365.143 180.431 364.917 180.341C364.691 180.25 364.52 180.143 364.401 180.018C364.33 179.939 364.241 179.894 364.134 179.883C364.027 179.871 363.92 179.905 363.813 179.985C363.718 180.052 363.663 180.139 363.648 180.243C363.634 180.348 363.668 180.443 363.751 180.528C363.953 180.726 364.229 180.884 364.579 181.003C364.929 181.122 365.301 181.181 365.693 181.181C366.102 181.181 366.448 181.122 366.73 181.003C367.012 180.884 367.229 180.722 367.38 180.515C367.532 180.308 367.607 180.072 367.607 179.806C367.607 179.586 367.552 179.389 367.442 179.217C367.332 179.044 367.148 178.892 366.89 178.759Z" fill="#485756"/>
<path d="M369.298 176.505C369.173 176.505 369.072 176.542 368.995 176.616C368.918 176.689 368.879 176.786 368.879 176.904V180.749C368.879 180.868 368.917 180.964 368.995 181.037C369.072 181.111 369.173 181.148 369.298 181.148C369.422 181.148 369.523 181.111 369.601 181.037C369.678 180.964 369.716 180.868 369.716 180.749V176.904C369.716 176.786 369.678 176.69 369.601 176.616C369.523 176.542 369.422 176.505 369.298 176.505Z" fill="#485756"/>
<path d="M370.188 174.129C370.075 174.129 369.977 174.169 369.894 174.248L368.977 175.122C368.912 175.19 368.879 175.278 368.879 175.385C368.879 175.499 368.92 175.593 369 175.67C369.08 175.746 369.179 175.784 369.298 175.784C369.417 175.784 369.512 175.748 369.583 175.674L370.491 174.808C370.539 174.775 370.57 174.733 370.585 174.685C370.6 174.637 370.607 174.588 370.607 174.537C370.607 174.424 370.568 174.328 370.491 174.248C370.414 174.169 370.313 174.129 370.188 174.129Z" fill="#485756"/>
<path d="M376.436 176.556C376.329 176.511 376.225 176.504 376.124 176.535C376.023 176.566 375.949 176.627 375.902 176.718L374.316 180.012L372.714 176.718C372.666 176.627 372.595 176.566 372.5 176.535C372.405 176.504 372.31 176.511 372.215 176.556C372.108 176.601 372.037 176.668 372.002 176.755C371.966 176.843 371.969 176.932 372.011 177.023L373.934 180.884C374.023 181.054 374.153 181.139 374.326 181.139C374.498 181.139 374.625 181.054 374.709 180.884L376.614 177.014C376.662 176.93 376.668 176.842 376.632 176.751C376.596 176.661 376.531 176.596 376.436 176.556Z" fill="#485756"/>
<path d="M380.852 176.781C380.484 176.575 380.066 176.472 379.597 176.472C379.134 176.472 378.717 176.575 378.346 176.781C377.975 176.988 377.681 177.268 377.465 177.621C377.248 177.975 377.14 178.378 377.14 178.831C377.14 179.278 377.24 179.679 377.443 180.036C377.644 180.392 377.92 180.672 378.271 180.876C378.621 181.079 379.016 181.181 379.455 181.181C379.894 181.181 380.284 181.081 380.626 180.88C380.856 180.745 381.053 180.576 381.218 180.375V180.757C381.218 180.87 381.258 180.965 381.338 181.041C381.418 181.118 381.518 181.156 381.636 181.156C381.761 181.156 381.862 181.118 381.939 181.041C382.016 180.965 382.055 180.87 382.055 180.757V178.83C382.055 178.383 381.947 177.982 381.73 177.625C381.512 177.27 381.22 176.988 380.852 176.781ZM381.035 179.671C380.89 179.92 380.693 180.117 380.447 180.261C380.201 180.405 379.918 180.477 379.597 180.477C379.288 180.477 379.008 180.405 378.756 180.261C378.503 180.117 378.304 179.92 378.159 179.671C378.014 179.422 377.941 179.142 377.941 178.831C377.941 178.514 378.014 178.232 378.159 177.982C378.304 177.733 378.503 177.537 378.756 177.393C379.008 177.248 379.288 177.176 379.597 177.176C379.918 177.176 380.201 177.248 380.447 177.393C380.693 177.537 380.89 177.733 381.035 177.982C381.18 178.231 381.253 178.514 381.253 178.831C381.253 179.142 381.18 179.422 381.035 179.671Z" fill="#485756"/>
<path d="M384.752 180.367H384.53C384.387 180.367 384.272 180.296 384.183 180.155C384.094 180.014 384.049 179.833 384.049 179.612V174.91C384.049 174.791 384.012 174.697 383.938 174.626C383.863 174.555 383.764 174.52 383.639 174.52C383.515 174.52 383.415 174.555 383.341 174.626C383.267 174.696 383.229 174.791 383.229 174.91V179.612C383.229 179.912 383.284 180.176 383.394 180.405C383.504 180.635 383.657 180.816 383.853 180.949C384.049 181.082 384.274 181.148 384.53 181.148H384.583C384.738 181.148 384.865 181.113 384.966 181.042C385.067 180.971 385.118 180.876 385.118 180.757C385.118 180.638 385.085 180.544 385.02 180.473C384.954 180.403 384.865 180.367 384.752 180.367Z" fill="#485756"/>
<path d="M390.006 179.005C390.077 178.94 390.113 178.856 390.113 178.754C390.113 178.307 390.024 177.913 389.845 177.57C389.667 177.228 389.411 176.959 389.075 176.764C388.74 176.569 388.344 176.471 387.886 176.471C387.424 176.471 387.013 176.572 386.653 176.773C386.294 176.973 386.013 177.251 385.812 177.604C385.61 177.958 385.509 178.366 385.509 178.831C385.509 179.289 385.616 179.695 385.829 180.048C386.043 180.402 386.34 180.679 386.72 180.88C387.1 181.081 387.533 181.181 388.02 181.181C388.293 181.181 388.581 181.132 388.884 181.033C389.187 180.934 389.436 180.808 389.632 180.655C389.726 180.587 389.771 180.507 389.765 180.413C389.759 180.32 389.709 180.234 389.614 180.154C389.543 180.098 389.459 180.071 389.364 180.074C389.269 180.077 389.18 180.107 389.097 180.163C388.973 180.254 388.811 180.333 388.612 180.401C388.413 180.468 388.216 180.503 388.02 180.503C387.676 180.503 387.371 180.43 387.107 180.286C386.843 180.142 386.635 179.944 386.484 179.692C386.376 179.514 386.308 179.317 386.277 179.103H389.73C389.842 179.102 389.934 179.07 390.006 179.005ZM387.009 177.367C387.255 177.223 387.548 177.151 387.886 177.151C388.195 177.151 388.459 177.218 388.679 177.354C388.898 177.49 389.067 177.675 389.186 177.91C389.271 178.078 389.325 178.264 389.35 178.466H386.287C386.317 178.287 386.371 178.12 386.448 177.965C386.576 177.711 386.763 177.511 387.009 177.367Z" fill="#485756"/>
<path fill-rule="evenodd" clip-rule="evenodd" d="M408.553 186.894L409.476 185.041L410.414 186.894H408.553ZM408.762 183.872L406.11 188.874H407.569L408.133 187.74H410.858L411.45 188.874H412.946L410.221 183.872H408.762ZM416.078 185.992H415.062V184.718H416.133C416.689 184.718 417.024 184.724 417.136 184.736C417.358 184.763 417.53 184.828 417.653 184.932C417.775 185.036 417.836 185.172 417.836 185.341C417.836 185.492 417.789 185.618 417.697 185.718C417.604 185.818 417.476 185.889 417.312 185.93C417.148 185.971 416.736 185.992 416.078 185.992ZM418.195 187.089C418.002 186.936 417.757 186.797 417.461 186.669C418.058 186.606 418.507 186.452 418.807 186.207C419.107 185.962 419.257 185.651 419.257 185.276C419.257 184.98 419.157 184.717 418.959 184.487C418.761 184.257 418.497 184.097 418.167 184.007C417.837 183.917 417.309 183.872 416.58 183.872H413.685V188.874H415.062V186.789H415.341C415.657 186.789 415.888 186.808 416.034 186.845C416.18 186.882 416.318 186.951 416.449 187.052C416.578 187.152 416.82 187.396 417.175 187.782L418.162 188.874H419.807L418.975 187.9C418.648 187.512 418.389 187.241 418.195 187.089ZM428.814 186.67H432.228V185.824H428.814V184.718H432.481V183.872H427.437V188.874H432.615V188.028H428.814V186.67ZM433.305 183.872V184.718H435.328V188.874H436.704V184.718H438.712V183.872H433.305ZM403.718 187.841C403.456 188.012 403.142 188.097 402.778 188.097C402.283 188.097 401.881 187.963 401.573 187.695C401.263 187.426 401.109 186.975 401.109 186.342C401.109 185.746 401.266 185.314 401.578 185.048C401.892 184.782 402.299 184.648 402.803 184.648C403.166 184.648 403.476 184.723 403.73 184.874C403.984 185.024 404.153 185.229 404.232 185.488L405.594 185.251C405.439 184.85 405.207 184.543 404.897 184.329C404.379 183.969 403.702 183.788 402.871 183.788C401.918 183.788 401.149 184.018 400.564 184.478C399.979 184.939 399.688 185.585 399.688 186.417C399.688 187.204 399.979 187.824 400.561 188.278C401.143 188.731 401.885 188.958 402.788 188.958C403.519 188.958 404.122 188.824 404.597 188.557C405.072 188.292 405.412 187.884 405.616 187.335L404.285 187.034C404.171 187.401 403.982 187.67 403.718 187.841ZM424.697 187.227L421.895 183.872H420.562V188.874H421.834V185.592L424.595 188.874H425.97V183.872H424.697V187.227ZM419.094 171.037C425.825 171.037 431.401 173.457 432.517 176.635C432.648 176.256 432.733 175.869 432.733 175.471C432.733 171.736 426.627 168.708 419.094 168.708C411.562 168.708 405.456 171.736 405.456 175.471C405.456 175.869 405.539 176.256 405.672 176.635C406.787 173.457 412.364 171.037 419.094 171.037ZM419.094 175.061C425.825 175.061 431.401 177.481 432.517 180.659C432.649 180.281 432.733 179.893 432.733 179.495C432.733 175.76 426.627 172.733 419.094 172.733C411.562 172.733 405.456 175.76 405.456 179.495C405.456 179.893 405.539 180.281 405.672 180.659C406.787 177.481 412.364 175.061 419.094 175.061Z" fill="#EC1C24"/>
<rect x="0.5" y="0.5" width="643" height="224.333" rx="12.5" stroke="#FC4C02"/>
<defs>
<linearGradient id="paint0_linear_70_4181" x1="253.888" y1="185.583" x2="292.913" y2="185.583" gradientUnits="userSpaceOnUse">
<stop stop-color="#231F5D"/>
<stop offset="1" stop-color="#024DA1"/>
</linearGradient>
<linearGradient id="paint1_linear_70_4181" x1="286.317" y1="180.888" x2="288.79" y2="180.888" gradientUnits="userSpaceOnUse">
<stop stop-color="#231F5D"/>
<stop offset="1" stop-color="#024DA1"/>
</linearGradient>
</defs>
</svg>
