<svg width="644" height="226" viewBox="0 0 644 226" fill="none" xmlns="http://www.w3.org/2000/svg">
<rect x="0.5" y="0.5" width="643" height="224.333" rx="12.5" fill="white"/>
<rect width="642" height="85.3333" transform="translate(1 1)" fill="#FAFBFB"/>
<path d="M21.66 51.1667V39.1267H17.64V36.9667H28.16V39.1267H24.08V51.1667H21.66ZM31.4122 51.3267C28.9722 51.3267 27.7522 50 27.7522 47.3467V41.4067H29.9922V46.7467C29.9922 47.6934 30.1389 48.3534 30.4322 48.7267C30.7389 49.1 31.2389 49.2867 31.9322 49.2867C32.6255 49.2867 33.2122 49.0067 33.6922 48.4467C34.1855 47.8734 34.4322 47.0867 34.4322 46.0867V41.4067H36.6722V51.1667H34.4322V49.9467L34.3922 49.9267C33.6189 50.86 32.6255 51.3267 31.4122 51.3267ZM42.6347 51.3267C41.0747 51.3267 39.7614 50.8534 38.6947 49.9067L39.8147 48.2267C40.588 48.9867 41.528 49.3667 42.6347 49.3667C43.0614 49.3667 43.3947 49.28 43.6347 49.1067C43.8747 48.9334 43.9947 48.7 43.9947 48.4067C43.9947 48.18 43.8547 47.9934 43.5747 47.8467C43.308 47.6867 42.808 47.48 42.0747 47.2267C41.1147 46.8934 40.3747 46.4934 39.8547 46.0267C39.348 45.56 39.0947 44.8934 39.0947 44.0267C39.0947 43.2267 39.4147 42.5667 40.0547 42.0467C40.708 41.5267 41.5347 41.2667 42.5347 41.2667C43.828 41.2667 44.9747 41.6734 45.9747 42.4867L44.8547 44.2467C44.1214 43.5534 43.308 43.2067 42.4147 43.2067C42.148 43.2067 41.9014 43.28 41.6747 43.4267C41.4614 43.56 41.3547 43.7667 41.3547 44.0467C41.3547 44.4467 41.868 44.84 42.8947 45.2267C44.1614 45.72 44.9547 46.08 45.2747 46.3067C45.9414 46.7734 46.2747 47.46 46.2747 48.3667C46.2747 49.2334 45.9614 49.9467 45.3347 50.5067C44.7214 51.0534 43.8214 51.3267 42.6347 51.3267ZM57.9906 51.3267C56.6173 51.3267 55.484 50.8667 54.5906 49.9467C53.6973 49.0267 53.2506 47.82 53.2506 46.3267C53.2506 44.86 53.6973 43.6534 54.5906 42.7067C55.4973 41.7467 56.624 41.2667 57.9706 41.2667C59.304 41.2667 60.344 41.7134 61.0906 42.6067H61.1106V36.4467H63.3306V51.1667H61.1906V49.8467H61.1706C60.4106 50.8334 59.3506 51.3267 57.9906 51.3267ZM56.3106 48.4667C56.844 49.0134 57.5173 49.2867 58.3306 49.2867C59.144 49.2867 59.824 49.0134 60.3706 48.4667C60.9173 47.92 61.1906 47.2134 61.1906 46.3467C61.1906 45.4667 60.924 44.74 60.3906 44.1667C59.8573 43.58 59.1773 43.2867 58.3506 43.2867C57.5506 43.2867 56.8773 43.5667 56.3306 44.1267C55.7973 44.6867 55.5306 45.4267 55.5306 46.3467C55.5306 47.2134 55.7906 47.92 56.3106 48.4667ZM70.373 51.3267C68.9996 51.3267 67.8663 50.8667 66.973 49.9467C66.093 49.0267 65.653 47.82 65.653 46.3267C65.653 44.86 66.0996 43.6534 66.993 42.7067C67.8863 41.7467 69.0063 41.2667 70.353 41.2667C71.6596 41.2667 72.6663 41.7134 73.373 42.6067L73.413 42.5867V41.4067H75.653V51.1667H73.513V49.8867L73.473 49.8667C72.753 50.84 71.7196 51.3267 70.373 51.3267ZM70.733 49.2867C71.5063 49.2867 72.1596 49.0134 72.693 48.4667C73.2396 47.92 73.513 47.2134 73.513 46.3467C73.513 45.48 73.2463 44.7534 72.713 44.1667C72.193 43.58 71.533 43.2867 70.733 43.2867C69.933 43.2867 69.2663 43.5667 68.733 44.1267C68.1996 44.6867 67.933 45.4267 67.933 46.3467C67.933 47.2134 68.193 47.92 68.713 48.4667C69.233 49.0134 69.9063 49.2867 70.733 49.2867ZM81.3795 51.3267C80.5262 51.3267 79.8595 51.0534 79.3795 50.5067C78.8995 49.96 78.6595 49.1534 78.6595 48.0867V43.3067H77.4595V41.4067H78.6595V38.1667L80.8995 37.9267V41.4067H83.7595V43.3067H80.8995V47.8667C80.8995 48.36 80.9729 48.7134 81.1195 48.9267C81.2662 49.1267 81.5062 49.2267 81.8395 49.2267C82.2795 49.2267 82.7595 49.0867 83.2795 48.8067L83.8595 50.7467C83.1529 51.1334 82.3262 51.3267 81.3795 51.3267ZM89.8555 51.3267C88.3355 51.3267 87.1021 50.8534 86.1555 49.9067C85.2088 48.96 84.7355 47.76 84.7355 46.3067C84.7355 44.8534 85.2088 43.6534 86.1555 42.7067C87.1021 41.7467 88.3355 41.2667 89.8555 41.2667C91.3621 41.2667 92.5888 41.7334 93.5355 42.6667C94.4955 43.6 94.9755 44.8134 94.9755 46.3067C94.9755 47.7867 94.4955 48.9934 93.5355 49.9267C92.5888 50.86 91.3621 51.3267 89.8555 51.3267ZM89.8555 49.2867C90.6555 49.2867 91.3288 49.0067 91.8755 48.4467C92.4221 47.8867 92.6955 47.1734 92.6955 46.3067C92.6955 45.4134 92.4221 44.6867 91.8755 44.1267C91.3421 43.5667 90.6688 43.2867 89.8555 43.2867C89.0155 43.2867 88.3288 43.5734 87.7955 44.1467C87.2755 44.72 87.0155 45.44 87.0155 46.3067C87.0155 47.1467 87.2821 47.8534 87.8155 48.4267C88.3488 49 89.0288 49.2867 89.8555 49.2867ZM100.428 51.3267C98.8677 51.3267 97.5543 50.8534 96.4877 49.9067L97.6077 48.2267C98.381 48.9867 99.321 49.3667 100.428 49.3667C100.854 49.3667 101.188 49.28 101.428 49.1067C101.668 48.9334 101.788 48.7 101.788 48.4067C101.788 48.18 101.648 47.9934 101.368 47.8467C101.101 47.6867 100.601 47.48 99.8677 47.2267C98.9077 46.8934 98.1677 46.4934 97.6477 46.0267C97.141 45.56 96.8877 44.8934 96.8877 44.0267C96.8877 43.2267 97.2077 42.5667 97.8477 42.0467C98.501 41.5267 99.3277 41.2667 100.328 41.2667C101.621 41.2667 102.768 41.6734 103.768 42.4867L102.648 44.2467C101.914 43.5534 101.101 43.2067 100.208 43.2067C99.941 43.2067 99.6943 43.28 99.4677 43.4267C99.2543 43.56 99.1477 43.7667 99.1477 44.0467C99.1477 44.4467 99.661 44.84 100.688 45.2267C101.954 45.72 102.748 46.08 103.068 46.3067C103.734 46.7734 104.068 47.46 104.068 48.3667C104.068 49.2334 103.754 49.9467 103.128 50.5067C102.514 51.0534 101.614 51.3267 100.428 51.3267ZM114.124 51.1667V40.2067L111.644 42.0667L110.544 40.3467L114.564 37.4267H116.444V51.1667H114.124ZM124.492 51.3267C122.905 51.3267 121.625 50.7067 120.652 49.4667C119.692 48.2134 119.212 46.4934 119.212 44.3067C119.212 42.2 119.685 40.5067 120.632 39.2267C121.579 37.9334 122.865 37.2867 124.492 37.2867C126.079 37.2867 127.352 37.9067 128.312 39.1467C129.285 40.3867 129.772 42.1067 129.772 44.3067C129.772 46.4134 129.299 48.1134 128.352 49.4067C127.419 50.6867 126.132 51.3267 124.492 51.3267ZM124.492 49.1667C125.412 49.1667 126.125 48.74 126.632 47.8867C127.152 47.0334 127.412 45.84 127.412 44.3067C127.412 42.7734 127.152 41.58 126.632 40.7267C126.112 39.86 125.399 39.4267 124.492 39.4267C123.585 39.4267 122.872 39.86 122.352 40.7267C121.832 41.58 121.572 42.7734 121.572 44.3067C121.572 45.8134 121.832 47 122.352 47.8667C122.885 48.7334 123.599 49.1667 124.492 49.1667ZM137.129 51.3267C135.542 51.3267 134.262 50.7067 133.289 49.4667C132.329 48.2134 131.849 46.4934 131.849 44.3067C131.849 42.2 132.322 40.5067 133.269 39.2267C134.215 37.9334 135.502 37.2867 137.129 37.2867C138.715 37.2867 139.989 37.9067 140.949 39.1467C141.922 40.3867 142.409 42.1067 142.409 44.3067C142.409 46.4134 141.935 48.1134 140.989 49.4067C140.055 50.6867 138.769 51.3267 137.129 51.3267ZM137.129 49.1667C138.049 49.1667 138.762 48.74 139.269 47.8867C139.789 47.0334 140.049 45.84 140.049 44.3067C140.049 42.7734 139.789 41.58 139.269 40.7267C138.749 39.86 138.035 39.4267 137.129 39.4267C136.222 39.4267 135.509 39.86 134.989 40.7267C134.469 41.58 134.209 42.7734 134.209 44.3067C134.209 45.8134 134.469 47 134.989 47.8667C135.522 48.7334 136.235 49.1667 137.129 49.1667ZM151.465 51.6067L149.665 50.8267L155.945 36.6667L157.745 37.4467L151.465 51.6067ZM148.385 44.7467C147.252 44.7467 146.292 44.38 145.505 43.6467C144.732 42.9 144.345 41.94 144.345 40.7667C144.345 39.66 144.719 38.7267 145.465 37.9667C146.225 37.1934 147.199 36.8067 148.385 36.8067C149.505 36.8067 150.452 37.18 151.225 37.9267C152.012 38.66 152.405 39.6067 152.405 40.7667C152.405 41.8734 152.025 42.8134 151.265 43.5867C150.519 44.36 149.559 44.7467 148.385 44.7467ZM148.385 43.0467C149.025 43.0467 149.539 42.8334 149.925 42.4067C150.325 41.9667 150.525 41.4267 150.525 40.7867C150.525 40.12 150.319 39.58 149.905 39.1667C149.505 38.7534 148.999 38.5467 148.385 38.5467C147.772 38.5467 147.265 38.7667 146.865 39.2067C146.479 39.6334 146.285 40.16 146.285 40.7867C146.285 41.44 146.485 41.98 146.885 42.4067C147.299 42.8334 147.799 43.0467 148.385 43.0467ZM158.965 51.3267C157.845 51.3267 156.892 50.96 156.105 50.2267C155.332 49.48 154.945 48.52 154.945 47.3467C154.945 46.24 155.319 45.3067 156.065 44.5467C156.825 43.7734 157.792 43.3867 158.965 43.3867C160.099 43.3867 161.052 43.76 161.825 44.5067C162.612 45.24 163.005 46.1867 163.005 47.3467C163.005 48.4667 162.625 49.4134 161.865 50.1867C161.119 50.9467 160.152 51.3267 158.965 51.3267ZM158.985 49.6067C159.612 49.6067 160.125 49.3934 160.525 48.9667C160.925 48.5267 161.125 47.9934 161.125 47.3667C161.125 46.7134 160.919 46.18 160.505 45.7667C160.092 45.34 159.585 45.1267 158.985 45.1267C158.359 45.1267 157.845 45.3467 157.445 45.7867C157.045 46.2134 156.845 46.74 156.845 47.3667C156.845 48.02 157.052 48.56 157.465 48.9867C157.879 49.4 158.385 49.6067 158.985 49.6067ZM173.846 51.3267C172.286 51.3267 170.972 50.8534 169.906 49.9067L171.026 48.2267C171.799 48.9867 172.739 49.3667 173.846 49.3667C174.272 49.3667 174.606 49.28 174.846 49.1067C175.086 48.9334 175.206 48.7 175.206 48.4067C175.206 48.18 175.066 47.9934 174.786 47.8467C174.519 47.6867 174.019 47.48 173.286 47.2267C172.326 46.8934 171.586 46.4934 171.066 46.0267C170.559 45.56 170.306 44.8934 170.306 44.0267C170.306 43.2267 170.626 42.5667 171.266 42.0467C171.919 41.5267 172.746 41.2667 173.746 41.2667C175.039 41.2667 176.186 41.6734 177.186 42.4867L176.066 44.2467C175.332 43.5534 174.519 43.2067 173.626 43.2067C173.359 43.2067 173.112 43.28 172.886 43.4267C172.672 43.56 172.566 43.7667 172.566 44.0467C172.566 44.4467 173.079 44.84 174.106 45.2267C175.372 45.72 176.166 46.08 176.486 46.3067C177.152 46.7734 177.486 47.46 177.486 48.3667C177.486 49.2334 177.172 49.9467 176.546 50.5067C175.932 51.0534 175.032 51.3267 173.846 51.3267ZM188.63 46.1667C188.63 46.42 188.61 46.7067 188.57 47.0267H181.45C181.597 47.7334 181.917 48.2867 182.41 48.6867C182.917 49.0867 183.55 49.2867 184.31 49.2867C185.337 49.2867 186.157 48.9067 186.77 48.1467L188.33 49.4867C187.383 50.7134 186.003 51.3267 184.19 51.3267C182.697 51.3267 181.477 50.8667 180.53 49.9467C179.597 49.0267 179.13 47.8067 179.13 46.2867C179.13 44.7934 179.583 43.5867 180.49 42.6667C181.41 41.7334 182.59 41.2667 184.03 41.2667C185.39 41.2667 186.497 41.7267 187.35 42.6467C188.203 43.5667 188.63 44.74 188.63 46.1667ZM185.55 43.8267C185.15 43.4667 184.637 43.2867 184.01 43.2867C183.383 43.2867 182.843 43.46 182.39 43.8067C181.95 44.1534 181.65 44.64 181.49 45.2667H186.37C186.223 44.6534 185.95 44.1734 185.55 43.8267ZM195.3 55.2667C193.78 55.2667 192.454 54.9267 191.32 54.2467L191.86 52.2867C192.487 52.62 193.034 52.86 193.5 53.0067C193.98 53.1667 194.54 53.2467 195.18 53.2467C196.1 53.2467 196.814 53.0134 197.32 52.5467C197.827 52.0934 198.08 51.5267 198.08 50.8467V49.8267H198.04C197.254 50.6134 196.267 51.0067 195.08 51.0067C193.707 51.0067 192.567 50.56 191.66 49.6667C190.767 48.7734 190.32 47.6134 190.32 46.1867C190.32 44.76 190.754 43.5867 191.62 42.6667C192.5 41.7334 193.614 41.2667 194.96 41.2667C196.16 41.2667 197.174 41.66 198 42.4467H198.04V41.4067H200.28V50.1667C200.28 51.74 199.88 52.98 199.08 53.8867C198.28 54.8067 197.02 55.2667 195.3 55.2667ZM195.38 48.9467C196.194 48.9467 196.854 48.68 197.36 48.1467C197.88 47.6 198.14 46.9134 198.14 46.0867C198.14 45.2734 197.874 44.6067 197.34 44.0867C196.82 43.5667 196.167 43.3067 195.38 43.3067C194.554 43.3067 193.88 43.5734 193.36 44.1067C192.854 44.6267 192.6 45.3 192.6 46.1267C192.6 46.98 192.86 47.6667 193.38 48.1867C193.914 48.6934 194.58 48.9467 195.38 48.9467ZM206.549 51.3267C204.109 51.3267 202.889 50 202.889 47.3467V41.4067H205.129V46.7467C205.129 47.6934 205.276 48.3534 205.569 48.7267C205.876 49.1 206.376 49.2867 207.069 49.2867C207.762 49.2867 208.349 49.0067 208.829 48.4467C209.322 47.8734 209.569 47.0867 209.569 46.0867V41.4067H211.809V51.1667H209.569V49.9467L209.529 49.9267C208.756 50.86 207.762 51.3267 206.549 51.3267ZM214.651 51.1667V41.4067H216.891V42.8667H216.931C217.731 41.8 218.738 41.2667 219.951 41.2667H220.231V43.7667C219.885 43.74 219.658 43.7267 219.551 43.7267C218.725 43.7267 218.071 43.9934 217.591 44.5267C217.125 45.0467 216.891 45.72 216.891 46.5467V51.1667H214.651ZM226.359 51.3267C224.839 51.3267 223.606 50.8534 222.659 49.9067C221.713 48.96 221.239 47.76 221.239 46.3067C221.239 44.8534 221.713 43.6534 222.659 42.7067C223.606 41.7467 224.839 41.2667 226.359 41.2667C227.866 41.2667 229.093 41.7334 230.039 42.6667C230.999 43.6 231.479 44.8134 231.479 46.3067C231.479 47.7867 230.999 48.9934 230.039 49.9267C229.093 50.86 227.866 51.3267 226.359 51.3267ZM226.359 49.2867C227.159 49.2867 227.833 49.0067 228.379 48.4467C228.926 47.8867 229.199 47.1734 229.199 46.3067C229.199 45.4134 228.926 44.6867 228.379 44.1267C227.846 43.5667 227.173 43.2867 226.359 43.2867C225.519 43.2867 224.833 43.5734 224.299 44.1467C223.779 44.72 223.519 45.44 223.519 46.3067C223.519 47.1467 223.786 47.8534 224.319 48.4267C224.853 49 225.533 49.2867 226.359 49.2867ZM236.932 51.3267C235.372 51.3267 234.058 50.8534 232.992 49.9067L234.112 48.2267C234.885 48.9867 235.825 49.3667 236.932 49.3667C237.358 49.3667 237.692 49.28 237.932 49.1067C238.172 48.9334 238.292 48.7 238.292 48.4067C238.292 48.18 238.152 47.9934 237.872 47.8467C237.605 47.6867 237.105 47.48 236.372 47.2267C235.412 46.8934 234.672 46.4934 234.152 46.0267C233.645 45.56 233.392 44.8934 233.392 44.0267C233.392 43.2267 233.712 42.5667 234.352 42.0467C235.005 41.5267 235.832 41.2667 236.832 41.2667C238.125 41.2667 239.272 41.6734 240.272 42.4867L239.152 44.2467C238.418 43.5534 237.605 43.2067 236.712 43.2067C236.445 43.2067 236.198 43.28 235.972 43.4267C235.758 43.56 235.652 43.7667 235.652 44.0467C235.652 44.4467 236.165 44.84 237.192 45.2267C238.458 45.72 239.252 46.08 239.572 46.3067C240.238 46.7734 240.572 47.46 240.572 48.3667C240.572 49.2334 240.258 49.9467 239.632 50.5067C239.018 51.0534 238.118 51.3267 236.932 51.3267ZM252.548 51.3267C251.094 51.3267 249.901 50.86 248.968 49.9267C248.034 48.9934 247.568 47.7867 247.568 46.3067C247.568 44.8134 248.041 43.6 248.988 42.6667C249.934 41.7334 251.148 41.2667 252.628 41.2667C253.414 41.2667 254.174 41.4267 254.908 41.7467C255.641 42.0534 256.248 42.5 256.728 43.0867L255.208 44.4067C254.568 43.66 253.748 43.2867 252.748 43.2867C251.881 43.2867 251.181 43.5667 250.648 44.1267C250.114 44.6734 249.848 45.3934 249.848 46.2867C249.848 47.18 250.114 47.9067 250.648 48.4667C251.181 49.0134 251.881 49.2867 252.748 49.2867C253.814 49.2867 254.634 48.9067 255.208 48.1467L256.748 49.5067C255.814 50.72 254.414 51.3267 252.548 51.3267ZM263.332 51.3267C261.812 51.3267 260.579 50.8534 259.632 49.9067C258.685 48.96 258.212 47.76 258.212 46.3067C258.212 44.8534 258.685 43.6534 259.632 42.7067C260.579 41.7467 261.812 41.2667 263.332 41.2667C264.839 41.2667 266.065 41.7334 267.012 42.6667C267.972 43.6 268.452 44.8134 268.452 46.3067C268.452 47.7867 267.972 48.9934 267.012 49.9267C266.065 50.86 264.839 51.3267 263.332 51.3267ZM263.332 49.2867C264.132 49.2867 264.805 49.0067 265.352 48.4467C265.899 47.8867 266.172 47.1734 266.172 46.3067C266.172 45.4134 265.899 44.6867 265.352 44.1267C264.819 43.5667 264.145 43.2867 263.332 43.2867C262.492 43.2867 261.805 43.5734 261.272 44.1467C260.752 44.72 260.492 45.44 260.492 46.3067C260.492 47.1467 260.759 47.8534 261.292 48.4267C261.825 49 262.505 49.2867 263.332 49.2867ZM270.784 51.1667V41.4067H273.024V42.7467H273.064C273.891 41.76 274.978 41.2667 276.324 41.2667C277.444 41.2667 278.318 41.6067 278.944 42.2867C279.584 42.9667 279.904 44.0134 279.904 45.4267V51.1667H277.664V46.0067C277.664 45.02 277.484 44.32 277.124 43.9067C276.778 43.4934 276.251 43.2867 275.544 43.2867C274.771 43.2867 274.158 43.5467 273.704 44.0667C273.251 44.5867 273.024 45.32 273.024 46.2667V51.1667H270.784ZM294.791 51.2867C292.765 51.2867 291.065 50.6534 289.691 49.3867C288.318 48.1067 287.631 46.3467 287.631 44.1067C287.631 42.0134 288.265 40.2734 289.531 38.8867C290.798 37.5 292.538 36.8067 294.751 36.8067C297.005 36.8067 298.871 37.7134 300.351 39.5267L298.571 41.0267C297.518 39.7334 296.245 39.0867 294.751 39.0867C293.391 39.0867 292.285 39.5534 291.431 40.4867C290.578 41.4067 290.151 42.6134 290.151 44.1067C290.151 45.56 290.585 46.7467 291.451 47.6667C292.318 48.5734 293.431 49.0267 294.791 49.0267C296.298 49.0267 297.571 48.38 298.611 47.0867L300.391 48.6067C298.951 50.3934 297.085 51.2867 294.791 51.2867ZM302.702 51.1667V36.4467H304.942V51.1667H302.702ZM310.331 39.5267C310.037 39.82 309.684 39.9667 309.271 39.9667C308.857 39.9667 308.504 39.82 308.211 39.5267C307.917 39.2334 307.771 38.88 307.771 38.4667C307.771 38.0667 307.917 37.72 308.211 37.4267C308.504 37.1334 308.857 36.9867 309.271 36.9867C309.684 36.9867 310.037 37.1334 310.331 37.4267C310.637 37.72 310.791 38.0667 310.791 38.4667C310.791 38.88 310.637 39.2334 310.331 39.5267ZM308.151 51.1667V41.4067H310.391V51.1667H308.151ZM313.46 55.1267V41.4067H315.7V42.5667H315.74C316.487 41.7 317.513 41.2667 318.82 41.2667C320.18 41.2667 321.307 41.7467 322.2 42.7067C323.093 43.6534 323.54 44.86 323.54 46.3267C323.54 47.82 323.093 49.0267 322.2 49.9467C321.307 50.8667 320.173 51.3267 318.8 51.3267C317.507 51.3267 316.487 50.8734 315.74 49.9667L315.7 49.9867V55.1267H313.46ZM316.42 48.4667C316.967 49.0134 317.647 49.2867 318.46 49.2867C319.273 49.2867 319.94 49.0134 320.46 48.4667C320.993 47.92 321.26 47.2134 321.26 46.3467C321.26 45.4267 320.987 44.6867 320.44 44.1267C319.907 43.5667 319.24 43.2867 318.44 43.2867C317.613 43.2867 316.933 43.58 316.4 44.1667C315.867 44.74 315.6 45.4667 315.6 46.3467C315.6 47.2134 315.873 47.92 316.42 48.4667Z" fill="#5E5F73"/>
<rect x="497" y="9" width="130" height="69.3333" rx="8" fill="#F6F6F7"/>
<rect x="566.833" y="25.9667" width="45.8" height="35.6811" rx="4.5" fill="#FAFBFB" stroke="#2D9F70"/>
<path d="M566.333 29.4667C566.333 27.2576 568.124 25.4667 570.333 25.4667H609.134C611.343 25.4667 613.133 27.2576 613.133 29.4667V43.1748H566.333V29.4667Z" fill="#2D9F70"/>
<path d="M578.219 38.0682V32.6186L577.023 33.5234L576.357 32.473L578.51 30.9234H579.644V38.0682H578.219Z" fill="white"/>
<path d="M583.733 38.1618C582.894 38.1618 582.218 37.8359 581.705 37.1842C581.199 36.5324 580.946 35.638 580.946 34.501C580.946 33.3986 581.196 32.5146 581.695 31.849C582.201 31.1764 582.88 30.8402 583.733 30.8402C584.572 30.8402 585.245 31.166 585.751 31.8178C586.264 32.4626 586.52 33.357 586.52 34.501C586.52 35.6034 586.271 36.4908 585.772 37.1634C585.272 37.829 584.593 38.1618 583.733 38.1618ZM583.733 36.841C584.156 36.841 584.485 36.6399 584.721 36.2378C584.957 35.8287 585.075 35.2498 585.075 34.501C585.075 33.766 584.957 33.1906 584.721 32.7746C584.485 32.3586 584.156 32.1506 583.733 32.1506C583.317 32.1506 582.988 32.3551 582.745 32.7642C582.509 33.1732 582.392 33.7522 582.392 34.501C582.392 35.222 582.509 35.794 582.745 36.217C582.988 36.633 583.317 36.841 583.733 36.841Z" fill="white"/>
<path d="M590.264 38.1618C589.425 38.1618 588.749 37.8359 588.236 37.1842C587.729 36.5324 587.476 35.638 587.476 34.501C587.476 33.3986 587.726 32.5146 588.225 31.849C588.731 31.1764 589.411 30.8402 590.264 30.8402C591.103 30.8402 591.775 31.166 592.281 31.8178C592.794 32.4626 593.051 33.357 593.051 34.501C593.051 35.6034 592.801 36.4908 592.302 37.1634C591.803 37.829 591.123 38.1618 590.264 38.1618ZM590.264 36.841C590.687 36.841 591.016 36.6399 591.252 36.2378C591.487 35.8287 591.605 35.2498 591.605 34.501C591.605 33.766 591.487 33.1906 591.252 32.7746C591.016 32.3586 590.687 32.1506 590.264 32.1506C589.848 32.1506 589.518 32.3551 589.276 32.7642C589.04 33.1732 588.922 33.7522 588.922 34.501C588.922 35.222 589.04 35.794 589.276 36.217C589.518 36.633 589.848 36.841 590.264 36.841Z" fill="white"/>
<path d="M597.709 38.3178L596.68 37.8706L599.956 30.5178L600.985 30.965L597.709 38.3178ZM596.024 34.7402C595.435 34.7402 594.936 34.546 594.527 34.1578C594.125 33.7695 593.924 33.2703 593.924 32.6602C593.924 32.0847 594.118 31.5994 594.506 31.2042C594.901 30.802 595.407 30.601 596.024 30.601C596.614 30.601 597.11 30.7951 597.512 31.1834C597.921 31.5647 598.125 32.057 598.125 32.6602C598.125 33.2426 597.928 33.7348 597.532 34.137C597.137 34.5391 596.635 34.7402 596.024 34.7402ZM596.024 33.773C596.33 33.773 596.576 33.669 596.763 33.461C596.95 33.246 597.044 32.9826 597.044 32.6706C597.044 32.3516 596.947 32.0916 596.752 31.8906C596.558 31.6895 596.316 31.589 596.024 31.589C595.726 31.589 595.484 31.693 595.296 31.901C595.109 32.109 595.016 32.3655 595.016 32.6706C595.016 32.9895 595.113 33.253 595.307 33.461C595.501 33.669 595.74 33.773 596.024 33.773ZM601.62 38.1618C601.03 38.1618 600.531 37.9676 600.122 37.5794C599.72 37.1911 599.519 36.6919 599.519 36.0818C599.519 35.4994 599.713 35.0106 600.101 34.6154C600.496 34.2132 601.003 34.0122 601.62 34.0122C602.209 34.0122 602.705 34.2063 603.107 34.5946C603.516 34.9759 603.72 35.4716 603.72 36.0818C603.72 36.6642 603.523 37.1564 603.128 37.5586C602.739 37.9607 602.237 38.1618 601.62 38.1618ZM601.63 37.1842C601.928 37.1842 602.171 37.0802 602.358 36.8722C602.552 36.6572 602.649 36.3972 602.649 36.0922C602.649 35.7732 602.549 35.5132 602.348 35.3122C602.154 35.1111 601.914 35.0106 601.63 35.0106C601.332 35.0106 601.086 35.1146 600.892 35.3226C600.704 35.5306 600.611 35.7871 600.611 36.0922C600.611 36.4111 600.708 36.6746 600.902 36.8826C601.103 37.0836 601.346 37.1842 601.63 37.1842Z" fill="white"/>
<path d="M575.759 55.4951C574.725 55.4951 573.828 55.1034 573.065 54.3199L573.949 53.2383C574.212 53.5364 574.507 53.7652 574.833 53.9247C575.166 54.0842 575.485 54.1639 575.79 54.1639C576.129 54.1639 576.389 54.0946 576.57 53.9559C576.75 53.8103 576.84 53.6196 576.84 53.3839C576.84 53.1274 576.747 52.9298 576.559 52.7911C576.379 52.6524 576.046 52.4999 575.561 52.3335C575.297 52.2434 575.072 52.1602 574.885 52.0839C574.705 52.0007 574.507 51.8932 574.292 51.7615C574.084 51.6298 573.914 51.4911 573.783 51.3455C573.651 51.193 573.54 51.0058 573.45 50.7839C573.367 50.5551 573.325 50.3055 573.325 50.0351C573.325 49.4458 573.554 48.95 574.011 48.5479C574.469 48.1388 575.031 47.9308 575.696 47.9239C576.597 47.9239 577.429 48.2359 578.192 48.8599L577.339 49.9623C576.743 49.477 576.206 49.2343 575.727 49.2343C575.464 49.2343 575.249 49.3002 575.083 49.4319C574.923 49.5636 574.84 49.7439 574.833 49.9727C574.833 50.1876 574.92 50.3575 575.093 50.4823C575.273 50.6071 575.603 50.7631 576.081 50.9503C576.844 51.2484 577.343 51.4772 577.579 51.6367C578.112 51.9972 578.379 52.5207 578.379 53.2071C578.379 53.7202 578.241 54.157 577.963 54.5175C577.686 54.8711 577.357 55.1242 576.975 55.2767C576.594 55.4223 576.188 55.4951 575.759 55.4951Z" fill="#2D9F70"/>
<path d="M584.193 52.8119C584.193 52.9714 584.183 53.1343 584.162 53.3007H580.595C580.678 53.6058 580.838 53.845 581.073 54.0183C581.309 54.1916 581.597 54.2783 581.936 54.2783C582.45 54.2783 582.862 54.0876 583.174 53.7063L584.058 54.5279C583.559 55.1727 582.82 55.4951 581.843 55.4951C581.059 55.4951 580.418 55.2524 579.919 54.7671C579.427 54.2818 579.18 53.6439 579.18 52.8535C579.18 52.0839 579.42 51.4564 579.898 50.9711C580.383 50.4858 581.004 50.2431 581.76 50.2431C582.474 50.2431 583.056 50.4858 583.507 50.9711C583.964 51.4495 584.193 52.0631 584.193 52.8119ZM581.749 51.4287C581.472 51.4287 581.229 51.5084 581.021 51.6679C580.82 51.8204 580.682 52.0388 580.605 52.3231H582.841C582.689 51.7268 582.325 51.4287 581.749 51.4287Z" fill="#2D9F70"/>
<path d="M587.549 57.5439C586.758 57.5439 586.065 57.374 585.469 57.0343L585.791 55.8799C586.36 56.1988 586.911 56.3583 587.445 56.3583C587.895 56.3583 588.246 56.2508 588.495 56.0359C588.745 55.821 588.87 55.554 588.87 55.2351V54.7255H588.849C588.474 55.1138 587.982 55.3079 587.372 55.3079C586.672 55.3079 586.093 55.0756 585.635 54.6111C585.178 54.1466 584.949 53.5468 584.949 52.8119C584.949 52.0631 585.171 51.4495 585.614 50.9711C586.058 50.4858 586.62 50.2431 587.299 50.2431C587.909 50.2431 588.419 50.4442 588.828 50.8463H588.849V50.3159H590.211V54.8191C590.211 56.6356 589.324 57.5439 587.549 57.5439ZM586.696 53.7271C586.939 53.9628 587.247 54.0807 587.622 54.0807C587.996 54.0807 588.301 53.9594 588.537 53.7167C588.779 53.4671 588.901 53.1482 588.901 52.7599C588.901 52.3786 588.779 52.07 588.537 51.8343C588.294 51.5916 587.989 51.4703 587.622 51.4703C587.24 51.4703 586.928 51.5916 586.686 51.8343C586.45 52.077 586.332 52.389 586.332 52.7703C586.332 53.1655 586.453 53.4844 586.696 53.7271Z" fill="#2D9F70"/>
<path d="M593.285 55.4951C592.037 55.4951 591.413 54.7914 591.413 53.3839V50.3159H592.765V53.0303C592.765 53.4879 592.834 53.8103 592.973 53.9975C593.119 54.1778 593.354 54.2679 593.68 54.2679C593.992 54.2679 594.256 54.1396 594.471 53.8831C594.692 53.6196 594.803 53.2556 594.803 52.7911V50.3159H596.176V55.4015H594.803V54.7983L594.783 54.7879C594.394 55.2594 593.895 55.4951 593.285 55.4951Z" fill="#2D9F70"/>
<path d="M597.489 55.4015V50.3159H598.851V51.0543H598.872C599.274 50.5135 599.784 50.2431 600.401 50.2431H600.505V51.7303C600.408 51.7234 600.286 51.7199 600.141 51.7199C599.732 51.7199 599.413 51.8447 599.184 52.0943C598.962 52.337 598.851 52.6559 598.851 53.0511V55.4015H597.489Z" fill="#2D9F70"/>
<path d="M603.649 55.4951C602.845 55.4951 602.193 55.249 601.694 54.7567C601.195 54.2644 600.945 53.6335 600.945 52.8639C600.945 52.1012 601.195 51.4738 601.694 50.9815C602.193 50.4892 602.845 50.2431 603.649 50.2431C604.44 50.2431 605.085 50.4858 605.584 50.9711C606.09 51.4564 606.343 52.0874 606.343 52.8639C606.343 53.6404 606.09 54.2748 605.584 54.7671C605.085 55.2524 604.44 55.4951 603.649 55.4951ZM603.649 54.2679C604.017 54.2679 604.325 54.1362 604.575 53.8727C604.831 53.6092 604.96 53.273 604.96 52.8639C604.96 52.4479 604.835 52.1116 604.585 51.8551C604.336 51.5916 604.024 51.4599 603.649 51.4599C603.261 51.4599 602.942 51.5951 602.693 51.8655C602.45 52.129 602.329 52.4618 602.329 52.8639C602.329 53.266 602.45 53.6023 602.693 53.8727C602.942 54.1362 603.261 54.2679 603.649 54.2679Z" fill="#2D9F70"/>
<path fill-rule="evenodd" clip-rule="evenodd" d="M552.466 29.8675C552.448 25.9981 549.306 22.8668 545.433 22.8668C544.47 22.8668 543.527 23.0496 542.718 23.4102L517.088 34.294C513.436 35.8388 510.867 39.4585 510.867 43.6671V57.433C510.867 61.317 514.015 64.4668 517.901 64.4668C518.886 64.4668 519.824 64.2628 520.676 63.8967L546.196 53.0611C549.875 51.5266 552.467 47.8948 552.467 43.6671L552.466 29.8675Z" fill="#FC4C02"/>
<path fill-rule="evenodd" clip-rule="evenodd" d="M528.786 49.1072C528.433 49.1072 528.146 48.8345 528.146 48.4983V35.6366C528.146 35.3002 528.433 35.0272 528.786 35.0272C529.14 35.0272 529.426 35.3002 529.426 35.6366V48.4983C529.426 48.8345 529.14 49.1072 528.786 49.1072Z" fill="#FEFEFE"/>
<path fill-rule="evenodd" clip-rule="evenodd" d="M533.907 48.5138V38.8221C533.907 38.494 533.62 38.2281 533.265 38.2281C532.913 38.2281 532.627 38.494 532.627 38.8221V48.5138C532.627 48.8419 532.913 49.1081 533.265 49.1081C533.62 49.1081 533.907 48.8419 533.907 48.5138Z" fill="#FEFEFE"/>
<path fill-rule="evenodd" clip-rule="evenodd" d="M533.907 35.6857V35.6489C533.907 35.3057 533.62 35.0272 533.265 35.0272C532.913 35.0272 532.627 35.3057 532.627 35.6489V35.6857C532.627 36.0291 532.913 36.3072 533.265 36.3072C533.62 36.3072 533.907 36.0291 533.907 35.6857Z" fill="#FEFEFE"/>
<path fill-rule="evenodd" clip-rule="evenodd" d="M524.774 47.4238C525.004 47.1844 525.004 46.796 524.774 46.557C524.545 46.3172 524.172 46.3172 523.944 46.557C522.248 48.3235 519.49 48.3235 517.794 46.557C516.098 44.7878 516.098 41.911 517.794 40.143C518.615 39.2868 519.707 38.815 520.868 38.815C522.03 38.815 523.121 39.2868 523.942 40.143C524.172 40.383 524.545 40.383 524.774 40.143C525.004 39.9031 525.004 39.5154 524.774 39.2756C523.731 38.1874 522.344 37.5883 520.868 37.5883C519.393 37.5883 518.006 38.1874 516.962 39.2756C514.808 41.5217 514.808 45.1764 516.962 47.4238C518.039 48.5471 519.453 49.1083 520.869 49.1083C522.283 49.1083 523.697 48.5471 524.774 47.4238Z" fill="#FEFEFE"/>
<path fill-rule="evenodd" clip-rule="evenodd" d="M537.693 51.0655V43.2499C537.693 40.7928 539.727 38.7934 542.227 38.7934C544.727 38.7934 546.761 40.7928 546.761 43.2499C546.761 45.7076 544.727 47.7062 542.227 47.7062C540.786 47.7062 539.81 47.1648 539.803 47.1617C539.511 46.9934 539.134 47.0887 538.963 47.3761C538.793 47.6638 538.891 48.0326 539.182 48.2017C539.233 48.2307 540.436 48.9117 542.227 48.9117C545.403 48.9117 547.987 46.3719 547.987 43.2499C547.987 40.128 545.403 37.5883 542.227 37.5883C539.05 37.5883 536.467 40.128 536.467 43.2499V51.0655C536.467 51.3978 536.742 51.6683 537.08 51.6683C537.418 51.6683 537.693 51.3978 537.693 51.0655Z" fill="#FEFEFE"/>
<path d="M153.4 135.333L159.975 117.583H163.375L169.975 135.333H166.3L165.075 131.783H158.275L157.075 135.333H153.4ZM159.275 128.783H164.075L161.7 121.833H161.65L159.275 128.783ZM177.267 135.558C175.433 135.558 173.925 134.975 172.742 133.808C171.558 132.642 170.967 131.125 170.967 129.258C170.967 127.375 171.558 125.85 172.742 124.683C173.925 123.517 175.467 122.933 177.367 122.933C178.367 122.933 179.325 123.125 180.242 123.508C181.158 123.875 181.925 124.417 182.542 125.133L180.392 127.158C179.692 126.292 178.758 125.858 177.592 125.858C176.608 125.858 175.808 126.175 175.192 126.808C174.592 127.425 174.292 128.233 174.292 129.233C174.292 130.25 174.592 131.067 175.192 131.683C175.808 132.3 176.608 132.608 177.592 132.608C178.792 132.608 179.75 132.167 180.467 131.283L182.592 133.333C181.392 134.817 179.617 135.558 177.267 135.558ZM196.225 129.108C196.225 129.492 196.2 129.883 196.15 130.283H187.575C187.775 131.017 188.158 131.592 188.725 132.008C189.291 132.425 189.983 132.633 190.8 132.633C192.033 132.633 193.025 132.175 193.775 131.258L195.9 133.233C194.7 134.783 192.925 135.558 190.575 135.558C188.691 135.558 187.15 134.975 185.95 133.808C184.766 132.642 184.175 131.108 184.175 129.208C184.175 127.358 184.75 125.85 185.9 124.683C187.066 123.517 188.558 122.933 190.375 122.933C192.091 122.933 193.491 123.517 194.575 124.683C195.675 125.833 196.225 127.308 196.225 129.108ZM190.35 125.783C189.683 125.783 189.1 125.975 188.6 126.358C188.116 126.725 187.783 127.25 187.6 127.933H192.975C192.608 126.5 191.733 125.783 190.35 125.783ZM198.766 140.283V123.108H202.041V124.508H202.091C202.991 123.458 204.216 122.933 205.766 122.933C207.432 122.933 208.807 123.533 209.891 124.733C210.991 125.917 211.541 127.425 211.541 129.258C211.541 131.125 210.991 132.642 209.891 133.808C208.791 134.975 207.382 135.558 205.666 135.558C204.166 135.558 202.974 135.025 202.091 133.958L202.041 133.983V140.283H198.766ZM202.791 131.683C203.407 132.3 204.174 132.608 205.091 132.608C206.007 132.608 206.757 132.3 207.341 131.683C207.924 131.05 208.216 130.25 208.216 129.283C208.216 128.25 207.916 127.425 207.316 126.808C206.716 126.175 205.966 125.858 205.066 125.858C204.132 125.858 203.366 126.183 202.766 126.833C202.182 127.467 201.891 128.283 201.891 129.283C201.891 130.267 202.191 131.067 202.791 131.683ZM217.897 135.558C216.814 135.558 215.964 135.217 215.347 134.533C214.73 133.833 214.422 132.817 214.422 131.483V125.833H212.972V123.108H214.422V119.133L217.697 118.783V123.108H220.997V125.833H217.697V131.008C217.697 131.558 217.772 131.958 217.922 132.208C218.089 132.458 218.364 132.583 218.747 132.583C219.214 132.583 219.73 132.442 220.297 132.158L221.122 134.783C220.172 135.3 219.097 135.558 217.897 135.558ZM227.914 135.558C226.214 135.558 224.814 134.975 223.714 133.808C222.631 132.642 222.089 131.125 222.089 129.258C222.089 127.425 222.631 125.917 223.714 124.733C224.814 123.533 226.189 122.933 227.839 122.933C229.356 122.933 230.556 123.467 231.439 124.533L231.489 124.508V123.108H234.764V135.333H231.639V133.883L231.589 133.858C230.706 134.992 229.481 135.558 227.914 135.558ZM228.539 132.608C229.406 132.608 230.139 132.3 230.739 131.683C231.339 131.067 231.639 130.267 231.639 129.283C231.639 128.3 231.339 127.483 230.739 126.833C230.156 126.183 229.422 125.858 228.539 125.858C227.639 125.858 226.889 126.175 226.289 126.808C225.706 127.425 225.414 128.25 225.414 129.283C225.414 130.267 225.706 131.067 226.289 131.683C226.872 132.3 227.622 132.608 228.539 132.608ZM237.877 135.333V123.108H241.152V124.708H241.177C242.16 123.525 243.377 122.933 244.827 122.933C246.527 122.933 247.727 123.575 248.427 124.858H248.477C249.477 123.575 250.902 122.933 252.752 122.933C255.619 122.933 257.052 124.708 257.052 128.258V135.333H253.777V129.033C253.777 126.917 253.069 125.858 251.652 125.858C250.935 125.858 250.335 126.158 249.852 126.758C249.385 127.342 249.152 128.167 249.152 129.233V135.333H245.877V129.033C245.877 126.917 245.16 125.858 243.727 125.858C242.96 125.858 242.335 126.158 241.852 126.758C241.385 127.342 241.152 128.167 241.152 129.233V135.333H237.877ZM265.943 135.558C264.01 135.558 262.443 134.967 261.243 133.783C260.043 132.6 259.443 131.083 259.443 129.233C259.443 127.4 260.043 125.892 261.243 124.708C262.443 123.525 264.01 122.933 265.943 122.933C267.843 122.933 269.393 123.517 270.593 124.683C271.81 125.85 272.418 127.367 272.418 129.233C272.418 131.1 271.81 132.625 270.593 133.808C269.393 134.975 267.843 135.558 265.943 135.558ZM265.943 132.608C266.826 132.608 267.568 132.292 268.168 131.658C268.785 131.025 269.093 130.217 269.093 129.233C269.093 128.233 268.793 127.425 268.193 126.808C267.593 126.175 266.843 125.858 265.943 125.858C265.01 125.858 264.243 126.183 263.643 126.833C263.06 127.467 262.768 128.267 262.768 129.233C262.768 130.2 263.06 131.008 263.643 131.658C264.243 132.292 265.01 132.608 265.943 132.608ZM278.936 135.558C277.02 135.558 275.37 134.958 273.986 133.758L275.561 131.483C276.578 132.417 277.711 132.883 278.961 132.883C279.428 132.883 279.786 132.792 280.036 132.608C280.303 132.425 280.436 132.183 280.436 131.883C280.436 131.633 280.278 131.425 279.961 131.258C279.661 131.075 279.086 130.842 278.236 130.558C277.036 130.158 276.103 129.667 275.436 129.083C274.786 128.483 274.461 127.642 274.461 126.558C274.461 125.475 274.878 124.6 275.711 123.933C276.545 123.267 277.603 122.933 278.886 122.933C280.536 122.933 282.02 123.442 283.336 124.458L281.736 126.883C280.853 126.017 279.878 125.583 278.811 125.583C278.511 125.583 278.245 125.658 278.011 125.808C277.778 125.958 277.661 126.183 277.661 126.483C277.661 126.9 278.261 127.333 279.461 127.783C280.128 128.033 280.62 128.225 280.936 128.358C281.253 128.475 281.628 128.658 282.061 128.908C282.495 129.142 282.795 129.375 282.961 129.608C283.145 129.842 283.303 130.142 283.436 130.508C283.586 130.858 283.661 131.275 283.661 131.758C283.661 132.892 283.253 133.808 282.436 134.508C281.636 135.208 280.47 135.558 278.936 135.558ZM296.315 135.558C295.232 135.558 294.382 135.217 293.765 134.533C293.148 133.833 292.84 132.817 292.84 131.483V125.833H291.39V123.108H292.84V119.133L296.115 118.783V123.108H299.415V125.833H296.115V131.008C296.115 131.558 296.19 131.958 296.34 132.208C296.507 132.458 296.782 132.583 297.165 132.583C297.632 132.583 298.148 132.442 298.715 132.158L299.54 134.783C298.59 135.3 297.515 135.558 296.315 135.558ZM306.983 135.558C305.05 135.558 303.483 134.967 302.283 133.783C301.083 132.6 300.483 131.083 300.483 129.233C300.483 127.4 301.083 125.892 302.283 124.708C303.483 123.525 305.05 122.933 306.983 122.933C308.883 122.933 310.433 123.517 311.633 124.683C312.85 125.85 313.458 127.367 313.458 129.233C313.458 131.1 312.85 132.625 311.633 133.808C310.433 134.975 308.883 135.558 306.983 135.558ZM306.983 132.608C307.867 132.608 308.608 132.292 309.208 131.658C309.825 131.025 310.133 130.217 310.133 129.233C310.133 128.233 309.833 127.425 309.233 126.808C308.633 126.175 307.883 125.858 306.983 125.858C306.05 125.858 305.283 126.183 304.683 126.833C304.1 127.467 303.808 128.267 303.808 129.233C303.808 130.2 304.1 131.008 304.683 131.658C305.283 132.292 306.05 132.608 306.983 132.608ZM321.176 135.558C319.476 135.558 318.076 134.975 316.976 133.808C315.876 132.642 315.326 131.125 315.326 129.258C315.326 127.425 315.876 125.917 316.976 124.733C318.076 123.533 319.451 122.933 321.101 122.933C322.651 122.933 323.885 123.467 324.801 124.533H324.851V116.933H328.101V135.333H324.976V133.833H324.951C324.068 134.983 322.81 135.558 321.176 135.558ZM319.526 131.683C320.11 132.3 320.86 132.608 321.776 132.608C322.693 132.608 323.451 132.3 324.051 131.683C324.668 131.067 324.976 130.267 324.976 129.283C324.976 128.3 324.676 127.483 324.076 126.833C323.476 126.183 322.71 125.858 321.776 125.858C320.876 125.858 320.126 126.175 319.526 126.808C318.943 127.425 318.651 128.25 318.651 129.283C318.651 130.25 318.943 131.05 319.526 131.683ZM336.483 135.558C334.783 135.558 333.383 134.975 332.283 133.808C331.2 132.642 330.658 131.125 330.658 129.258C330.658 127.425 331.2 125.917 332.283 124.733C333.383 123.533 334.758 122.933 336.408 122.933C337.925 122.933 339.125 123.467 340.008 124.533L340.058 124.508V123.108H343.333V135.333H340.208V133.883L340.158 133.858C339.275 134.992 338.05 135.558 336.483 135.558ZM337.108 132.608C337.975 132.608 338.708 132.3 339.308 131.683C339.908 131.067 340.208 130.267 340.208 129.283C340.208 128.3 339.908 127.483 339.308 126.833C338.725 126.183 337.992 125.858 337.108 125.858C336.208 125.858 335.458 126.175 334.858 126.808C334.275 127.425 333.983 128.25 333.983 129.283C333.983 130.267 334.275 131.067 334.858 131.683C335.442 132.3 336.192 132.608 337.108 132.608ZM350.396 135.558C348.48 135.558 346.83 134.958 345.446 133.758L347.021 131.483C348.038 132.417 349.171 132.883 350.421 132.883C350.888 132.883 351.246 132.792 351.496 132.608C351.763 132.425 351.896 132.183 351.896 131.883C351.896 131.633 351.738 131.425 351.421 131.258C351.121 131.075 350.546 130.842 349.696 130.558C348.496 130.158 347.563 129.667 346.896 129.083C346.246 128.483 345.921 127.642 345.921 126.558C345.921 125.475 346.338 124.6 347.171 123.933C348.005 123.267 349.063 122.933 350.346 122.933C351.996 122.933 353.48 123.442 354.796 124.458L353.196 126.883C352.313 126.017 351.338 125.583 350.271 125.583C349.971 125.583 349.705 125.658 349.471 125.808C349.238 125.958 349.121 126.183 349.121 126.483C349.121 126.9 349.721 127.333 350.921 127.783C351.588 128.033 352.08 128.225 352.396 128.358C352.713 128.475 353.088 128.658 353.521 128.908C353.955 129.142 354.255 129.375 354.421 129.608C354.605 129.842 354.763 130.142 354.896 130.508C355.046 130.858 355.121 131.275 355.121 131.758C355.121 132.892 354.713 133.808 353.896 134.508C353.096 135.208 351.93 135.558 350.396 135.558ZM364.15 135.333V116.933H367.425V135.333H364.15ZM375.961 135.558C374.261 135.558 372.861 134.975 371.761 133.808C370.678 132.642 370.136 131.125 370.136 129.258C370.136 127.425 370.678 125.917 371.761 124.733C372.861 123.533 374.236 122.933 375.886 122.933C377.403 122.933 378.603 123.467 379.486 124.533L379.536 124.508V123.108H382.811V135.333H379.686V133.883L379.636 133.858C378.753 134.992 377.528 135.558 375.961 135.558ZM376.586 132.608C377.453 132.608 378.186 132.3 378.786 131.683C379.386 131.067 379.686 130.267 379.686 129.283C379.686 128.3 379.386 127.483 378.786 126.833C378.203 126.183 377.469 125.858 376.586 125.858C375.686 125.858 374.936 126.175 374.336 126.808C373.753 127.425 373.461 128.25 373.461 129.283C373.461 130.267 373.753 131.067 374.336 131.683C374.919 132.3 375.669 132.608 376.586 132.608ZM389.874 135.558C387.957 135.558 386.307 134.958 384.924 133.758L386.499 131.483C387.515 132.417 388.649 132.883 389.899 132.883C390.365 132.883 390.724 132.792 390.974 132.608C391.24 132.425 391.374 132.183 391.374 131.883C391.374 131.633 391.215 131.425 390.899 131.258C390.599 131.075 390.024 130.842 389.174 130.558C387.974 130.158 387.04 129.667 386.374 129.083C385.724 128.483 385.399 127.642 385.399 126.558C385.399 125.475 385.815 124.6 386.649 123.933C387.482 123.267 388.54 122.933 389.824 122.933C391.474 122.933 392.957 123.442 394.274 124.458L392.674 126.883C391.79 126.017 390.815 125.583 389.749 125.583C389.449 125.583 389.182 125.658 388.949 125.808C388.715 125.958 388.599 126.183 388.599 126.483C388.599 126.9 389.199 127.333 390.399 127.783C391.065 128.033 391.557 128.225 391.874 128.358C392.19 128.475 392.565 128.658 392.999 128.908C393.432 129.142 393.732 129.375 393.899 129.608C394.082 129.842 394.24 130.142 394.374 130.508C394.524 130.858 394.599 131.275 394.599 131.758C394.599 132.892 394.19 133.808 393.374 134.508C392.574 135.208 391.407 135.558 389.874 135.558ZM407.253 135.558C406.169 135.558 405.319 135.217 404.703 134.533C404.086 133.833 403.778 132.817 403.778 131.483V125.833H402.328V123.108H403.778V119.133L407.053 118.783V123.108H410.353V125.833H407.053V131.008C407.053 131.558 407.128 131.958 407.278 132.208C407.444 132.458 407.719 132.583 408.103 132.583C408.569 132.583 409.086 132.442 409.653 132.158L410.478 134.783C409.528 135.3 408.453 135.558 407.253 135.558ZM417.27 135.558C415.57 135.558 414.17 134.975 413.07 133.808C411.986 132.642 411.445 131.125 411.445 129.258C411.445 127.425 411.986 125.917 413.07 124.733C414.17 123.533 415.545 122.933 417.195 122.933C418.711 122.933 419.911 123.467 420.795 124.533L420.845 124.508V123.108H424.12V135.333H420.995V133.883L420.945 133.858C420.061 134.992 418.836 135.558 417.27 135.558ZM417.895 132.608C418.761 132.608 419.495 132.3 420.095 131.683C420.695 131.067 420.995 130.267 420.995 129.283C420.995 128.3 420.695 127.483 420.095 126.833C419.511 126.183 418.778 125.858 417.895 125.858C416.995 125.858 416.245 126.175 415.645 126.808C415.061 127.425 414.77 128.25 414.77 129.283C414.77 130.267 415.061 131.067 415.645 131.683C416.228 132.3 416.978 132.608 417.895 132.608ZM427.232 135.333V123.108H430.507V124.883H430.557C431.524 123.583 432.749 122.933 434.232 122.933H434.482V126.508C434.249 126.492 433.957 126.483 433.607 126.483C432.624 126.483 431.857 126.783 431.307 127.383C430.774 127.967 430.507 128.733 430.507 129.683V135.333H427.232ZM438.134 121.458C437.534 121.458 437.034 121.267 436.634 120.883C436.251 120.483 436.059 120 436.059 119.433C436.059 118.883 436.251 118.417 436.634 118.033C437.034 117.633 437.534 117.433 438.134 117.433C438.718 117.433 439.209 117.633 439.609 118.033C440.009 118.417 440.209 118.883 440.209 119.433C440.209 120 440.009 120.483 439.609 120.883C439.209 121.267 438.718 121.458 438.134 121.458ZM436.159 140.508C435.243 140.508 434.393 140.35 433.609 140.033L434.159 137.333C434.526 137.533 434.926 137.633 435.359 137.633C436.109 137.633 436.484 137.067 436.484 135.933V123.108H439.759V136.058C439.759 137.492 439.434 138.592 438.784 139.358C438.134 140.125 437.259 140.508 436.159 140.508ZM454.257 129.108C454.257 129.492 454.232 129.883 454.182 130.283H445.607C445.807 131.017 446.19 131.592 446.757 132.008C447.324 132.425 448.015 132.633 448.832 132.633C450.065 132.633 451.057 132.175 451.807 131.258L453.932 133.233C452.732 134.783 450.957 135.558 448.607 135.558C446.724 135.558 445.182 134.975 443.982 133.808C442.799 132.642 442.207 131.108 442.207 129.208C442.207 127.358 442.782 125.85 443.932 124.683C445.099 123.517 446.59 122.933 448.407 122.933C450.124 122.933 451.524 123.517 452.607 124.683C453.707 125.833 454.257 127.308 454.257 129.108ZM448.382 125.783C447.715 125.783 447.132 125.975 446.632 126.358C446.149 126.725 445.815 127.25 445.632 127.933H451.007C450.64 126.5 449.765 125.783 448.382 125.783ZM460.573 135.558C459.49 135.558 458.64 135.217 458.023 134.533C457.406 133.833 457.098 132.817 457.098 131.483V125.833H455.648V123.108H457.098V119.133L460.373 118.783V123.108H463.673V125.833H460.373V131.008C460.373 131.558 460.448 131.958 460.598 132.208C460.765 132.458 461.04 132.583 461.423 132.583C461.89 132.583 462.406 132.442 462.973 132.158L463.798 134.783C462.848 135.3 461.773 135.558 460.573 135.558ZM470.59 135.558C468.89 135.558 467.49 134.975 466.39 133.808C465.307 132.642 464.765 131.125 464.765 129.258C464.765 127.425 465.307 125.917 466.39 124.733C467.49 123.533 468.865 122.933 470.515 122.933C472.032 122.933 473.232 123.467 474.115 124.533L474.165 124.508V123.108H477.44V135.333H474.315V133.883L474.265 133.858C473.382 134.992 472.157 135.558 470.59 135.558ZM471.215 132.608C472.082 132.608 472.815 132.3 473.415 131.683C474.015 131.067 474.315 130.267 474.315 129.283C474.315 128.3 474.015 127.483 473.415 126.833C472.832 126.183 472.098 125.858 471.215 125.858C470.315 125.858 469.565 126.175 468.965 126.808C468.382 127.425 468.09 128.25 468.09 129.283C468.09 130.267 468.382 131.067 468.965 131.683C469.548 132.3 470.298 132.608 471.215 132.608ZM484.503 135.558C482.586 135.558 480.936 134.958 479.553 133.758L481.128 131.483C482.144 132.417 483.278 132.883 484.528 132.883C484.994 132.883 485.353 132.792 485.603 132.608C485.869 132.425 486.003 132.183 486.003 131.883C486.003 131.633 485.844 131.425 485.528 131.258C485.228 131.075 484.653 130.842 483.803 130.558C482.603 130.158 481.669 129.667 481.003 129.083C480.353 128.483 480.028 127.642 480.028 126.558C480.028 125.475 480.444 124.6 481.278 123.933C482.111 123.267 483.169 122.933 484.453 122.933C486.103 122.933 487.586 123.442 488.903 124.458L487.303 126.883C486.419 126.017 485.444 125.583 484.378 125.583C484.078 125.583 483.811 125.658 483.578 125.808C483.344 125.958 483.228 126.183 483.228 126.483C483.228 126.9 483.828 127.333 485.028 127.783C485.694 128.033 486.186 128.225 486.503 128.358C486.819 128.475 487.194 128.658 487.628 128.908C488.061 129.142 488.361 129.375 488.528 129.608C488.711 129.842 488.869 130.142 489.003 130.508C489.153 130.858 489.228 131.275 489.228 131.758C489.228 132.892 488.819 133.808 488.003 134.508C487.203 135.208 486.036 135.558 484.503 135.558Z" fill="black"/>
<rect x="219.9" y="170.343" width="9.79855" height="16.9809" fill="#FF5F00"/>
<path d="M220.522 178.835C220.518 175.521 222.096 172.389 224.799 170.343C220.208 166.863 213.614 167.37 209.652 171.507C205.691 175.644 205.691 182.022 209.652 186.159C213.614 190.296 220.208 190.803 224.799 187.324C222.096 185.278 220.519 182.148 220.522 178.835Z" fill="#EB001B"/>
<path d="M242.918 178.835C242.918 182.969 240.47 186.741 236.614 188.548C232.757 190.354 228.169 189.879 224.799 187.324C227.5 185.277 229.078 182.147 229.078 178.833C229.078 175.52 227.5 172.39 224.799 170.343C228.169 167.788 232.757 167.312 236.614 169.119C240.47 170.926 242.918 174.697 242.918 178.832V178.835Z" fill="#F79E1B"/>
<path fill-rule="evenodd" clip-rule="evenodd" d="M241.931 185.219V185.774H241.842V185.219H241.625V185.104H242.132V185.219H241.931ZM242.919 185.104V185.774L242.829 185.779V185.272L242.662 185.707H242.547L242.38 185.272V185.774H242.269V185.104H242.406L242.585 185.583L242.765 185.104H242.919Z" fill="#F79E1B"/>
<mask id="mask0_70_3795" style="mask-type:luminance" maskUnits="userSpaceOnUse" x="253" y="172" width="40" height="14">
<path fill-rule="evenodd" clip-rule="evenodd" d="M279.349 172.083C276.259 172.102 274.087 173.871 274.07 176.399C274.049 178.28 275.635 179.328 276.831 179.953C278.058 180.593 278.471 181.003 278.466 181.575C278.457 182.452 277.486 182.838 276.578 182.853C274.993 182.88 274.073 182.394 273.34 182.028L272.769 184.89C273.505 185.252 274.865 185.568 276.275 185.583C279.588 185.583 281.755 183.831 281.765 181.116C281.779 177.67 277.317 177.48 277.348 175.94C277.358 175.472 277.774 174.974 278.685 174.846C279.136 174.784 280.383 174.735 281.794 175.431L282.348 172.662C281.598 172.371 280.637 172.09 279.443 172.083H279.349ZM287.676 172.322C287.07 172.322 286.56 172.699 286.333 173.28L281.601 185.38H284.912L285.57 183.429H289.615L289.996 185.38H292.913L290.367 172.322H287.676ZM288.138 175.85L289.093 180.753H286.478L288.138 175.85ZM270.058 172.322L267.449 185.38H270.603L273.21 172.322H270.058ZM265.392 172.322L262.11 181.209L260.782 173.653C260.627 172.809 260.011 172.322 259.328 172.322H253.962L253.888 172.701C254.989 172.957 256.241 173.371 256.999 173.812C257.463 174.082 257.595 174.317 257.748 174.959L260.262 185.379H263.595L268.704 172.322H265.392Z" fill="white"/>
</mask>
<g mask="url(#mask0_70_3795)">
<path fill-rule="evenodd" clip-rule="evenodd" d="M279.443 172.083L279.551 172.085C280.622 172.106 281.501 172.345 282.205 172.608L282.348 172.662L281.794 175.431L281.725 175.397C280.388 174.758 279.21 174.782 278.732 174.84L278.685 174.846L278.63 174.855C277.775 174.992 277.374 175.461 277.349 175.911L277.348 175.94L277.348 175.986C277.405 177.469 281.692 177.7 281.764 181.014L281.765 181.116L281.764 181.197C281.712 183.839 279.598 185.549 276.373 185.583L276.275 185.583L276.185 185.582C274.837 185.555 273.547 185.257 272.817 184.913L272.769 184.89L273.34 182.028L273.596 182.156C274.275 182.49 275.135 182.861 276.491 182.854L276.578 182.853L276.623 182.852C277.502 182.826 278.425 182.45 278.465 181.618L278.466 181.575L278.466 181.546C278.456 181.009 278.066 180.611 276.955 180.018L276.699 179.883C275.537 179.258 274.086 178.237 274.069 176.466L274.07 176.399L274.071 176.323C274.13 173.861 276.246 172.136 279.258 172.084L279.349 172.083H279.443ZM273.21 172.322L270.603 185.38H267.449L270.058 172.322H273.21ZM259.328 172.322L259.369 172.323C260.022 172.341 260.606 172.807 260.772 173.603L260.782 173.653L262.11 181.209L265.392 172.322H268.704L263.595 185.379H260.262L257.735 174.905C257.592 174.322 257.458 174.088 257.039 173.836L256.999 173.812L256.928 173.772C256.189 173.359 255.031 172.974 253.988 172.724L253.888 172.701L253.962 172.322H259.328ZM290.367 172.322L292.913 185.38H289.996L289.615 183.429H285.57L284.912 185.38H281.601L286.333 173.28L286.351 173.236C286.58 172.695 287.059 172.341 287.629 172.323L287.676 172.322H290.367Z" fill="url(#paint0_linear_70_3795)"/>
<path fill-rule="evenodd" clip-rule="evenodd" d="M287.887 175.899L288.79 180.888H286.317L287.887 175.899Z" fill="url(#paint1_linear_70_3795)"/>
</g>
<path d="M333.15 189.633H322.067H310.85V178.726V168.033H321.918H333.15V178.833V189.633Z" fill="white"/>
<path d="M333.15 189.633V186.211H330.459L329.075 184.728L327.682 186.211H318.812V179.296H315.951L319.5 171.513H322.926L324.148 174.18V171.513H328.387L329.123 173.522L329.864 171.513H333.15V168.033H310.85V189.633H333.15ZM330.913 185.345H333.15L330.191 182.306L333.15 179.3H330.948L329.121 181.233L327.311 179.299H325.073L328.015 182.321L325.073 185.344H327.247L329.084 183.392L330.911 185.344L330.913 185.345ZM331.436 182.31L333.15 184.075V180.556L331.436 182.308V182.31ZM321.462 183.946V183.005H324.988V181.641H321.462V180.699H325.073V179.3H319.76V185.345H325.073V183.946H321.462ZM331.465 178.423H333.15V172.378H330.526L329.127 176.143L327.738 172.378H325.072V178.423H326.757V174.192L328.361 178.427H329.859L331.462 174.187V178.427L331.465 178.423ZM323.157 178.423H325.074L322.319 172.378H320.125L317.37 178.423H319.242L319.759 177.214H322.63L323.156 178.423H323.157ZM322.043 175.858H320.347L321.195 173.882L322.042 175.858H322.043Z" fill="#0079C1"/>
<path d="M363.835 176.432V172.758H351.087V184.908H363.835V181.345C363.627 181.232 363.444 181.101 363.292 180.952L363.284 180.943C363.07 180.725 362.975 180.448 363.016 180.163C363.053 179.897 363.195 179.669 363.425 179.503C363.567 179.398 363.707 179.339 363.834 179.306V179.038C363.833 179.037 363.831 179.036 363.83 179.034C363.419 178.694 363.201 178.251 363.201 177.753C363.201 177.316 363.34 176.941 363.615 176.639C363.683 176.564 363.757 176.496 363.835 176.432ZM357.207 179.192C357.207 180.139 356.453 180.895 355.219 180.895C354.274 180.895 353.296 180.384 353.296 179.047V175.533L354.354 175.311V178.902C354.354 179.36 354.442 179.925 355.268 179.925C356.005 179.925 356.149 179.444 356.149 178.818V175.533L357.207 175.311V179.192ZM359.875 180.895C359.451 180.895 359.057 180.768 358.728 180.552V181.926L357.71 182.148V176.78L358.731 176.545V177.116C359.06 176.897 359.449 176.775 359.875 176.775C361.022 176.775 361.951 177.697 361.951 178.835C361.951 179.972 361.022 180.895 359.875 180.895Z" fill="#F4921F"/>
<path d="M359.81 177.656C359.129 177.656 358.632 178.199 358.632 178.833C358.632 179.467 359.129 180.009 359.81 180.009C360.492 180.009 360.989 179.467 360.989 178.833C360.988 178.199 360.491 177.656 359.81 177.656Z" fill="#F4921F"/>
<path d="M366.89 178.759C366.631 178.626 366.28 178.52 365.834 178.441C365.508 178.384 365.26 178.322 365.091 178.254C364.921 178.186 364.806 178.108 364.744 178.02C364.681 177.933 364.65 177.835 364.65 177.727C364.65 177.552 364.742 177.415 364.926 177.316C365.11 177.217 365.345 177.168 365.63 177.168C365.867 177.168 366.075 177.197 366.253 177.257C366.431 177.316 366.594 177.419 366.743 177.566C366.826 177.64 366.927 177.687 367.046 177.706C367.164 177.726 367.265 177.708 367.349 177.651C367.443 177.589 367.494 177.513 367.5 177.422C367.506 177.332 367.473 177.244 367.402 177.159C367.224 176.944 366.985 176.776 366.685 176.654C366.385 176.532 366.039 176.471 365.648 176.471C365.339 176.471 365.046 176.518 364.77 176.611C364.494 176.705 364.27 176.846 364.098 177.036C363.926 177.225 363.84 177.464 363.84 177.753C363.84 178.075 363.976 178.35 364.249 178.576C364.522 178.802 364.959 178.969 365.559 179.077C366.022 179.156 366.345 179.259 366.529 179.386C366.713 179.514 366.805 179.668 366.805 179.849C366.799 180.03 366.703 180.18 366.516 180.299C366.329 180.417 366.049 180.477 365.674 180.477C365.395 180.477 365.143 180.431 364.917 180.341C364.691 180.251 364.52 180.143 364.401 180.019C364.33 179.939 364.241 179.894 364.134 179.883C364.027 179.872 363.92 179.905 363.813 179.985C363.718 180.053 363.663 180.139 363.648 180.244C363.634 180.348 363.668 180.443 363.751 180.528C363.953 180.726 364.229 180.885 364.579 181.003C364.929 181.122 365.301 181.181 365.693 181.181C366.102 181.181 366.448 181.122 366.73 181.003C367.012 180.884 367.229 180.722 367.38 180.515C367.532 180.309 367.607 180.072 367.607 179.807C367.607 179.586 367.552 179.39 367.442 179.217C367.332 179.045 367.148 178.892 366.89 178.759Z" fill="#485756"/>
<path d="M369.298 176.506C369.173 176.506 369.072 176.542 368.995 176.616C368.918 176.689 368.879 176.786 368.879 176.905V180.749C368.879 180.868 368.917 180.964 368.995 181.038C369.072 181.111 369.173 181.148 369.298 181.148C369.422 181.148 369.523 181.111 369.601 181.038C369.678 180.964 369.716 180.868 369.716 180.749V176.905C369.716 176.786 369.678 176.69 369.601 176.616C369.523 176.542 369.422 176.506 369.298 176.506Z" fill="#485756"/>
<path d="M370.188 174.13C370.075 174.13 369.977 174.169 369.894 174.248L368.977 175.123C368.912 175.19 368.879 175.278 368.879 175.386C368.879 175.499 368.92 175.593 369 175.67C369.08 175.746 369.179 175.785 369.298 175.785C369.417 175.785 369.512 175.748 369.583 175.674L370.491 174.809C370.539 174.775 370.57 174.734 370.585 174.686C370.6 174.637 370.607 174.588 370.607 174.537C370.607 174.424 370.568 174.328 370.491 174.248C370.414 174.169 370.313 174.13 370.188 174.13Z" fill="#485756"/>
<path d="M376.436 176.557C376.329 176.512 376.225 176.505 376.124 176.535C376.023 176.567 375.949 176.628 375.902 176.718L374.316 180.012L372.714 176.718C372.666 176.628 372.595 176.567 372.5 176.535C372.405 176.505 372.31 176.512 372.215 176.557C372.108 176.602 372.037 176.668 372.002 176.756C371.966 176.844 371.969 176.933 372.011 177.023L373.934 180.885C374.023 181.055 374.153 181.139 374.326 181.139C374.498 181.139 374.625 181.055 374.709 180.885L376.614 177.015C376.662 176.93 376.668 176.842 376.632 176.752C376.596 176.661 376.531 176.596 376.436 176.557Z" fill="#485756"/>
<path d="M380.852 176.782C380.484 176.575 380.066 176.472 379.597 176.472C379.134 176.472 378.717 176.575 378.346 176.782C377.975 176.988 377.681 177.268 377.465 177.622C377.248 177.975 377.14 178.378 377.14 178.831C377.14 179.278 377.24 179.679 377.443 180.036C377.644 180.392 377.92 180.672 378.271 180.876C378.621 181.079 379.016 181.181 379.455 181.181C379.894 181.181 380.284 181.081 380.626 180.88C380.856 180.745 381.053 180.576 381.218 180.375V180.757C381.218 180.87 381.258 180.965 381.338 181.041C381.418 181.118 381.518 181.156 381.636 181.156C381.761 181.156 381.862 181.118 381.939 181.041C382.016 180.965 382.055 180.871 382.055 180.757V178.83C382.055 178.384 381.947 177.982 381.73 177.625C381.512 177.27 381.22 176.988 380.852 176.782ZM381.035 179.671C380.89 179.92 380.693 180.117 380.447 180.261C380.201 180.405 379.918 180.477 379.597 180.477C379.288 180.477 379.008 180.405 378.756 180.261C378.503 180.117 378.304 179.92 378.159 179.671C378.014 179.422 377.941 179.142 377.941 178.831C377.941 178.514 378.014 178.232 378.159 177.982C378.304 177.733 378.503 177.537 378.756 177.393C379.008 177.249 379.288 177.176 379.597 177.176C379.918 177.176 380.201 177.249 380.447 177.393C380.693 177.537 380.89 177.733 381.035 177.982C381.18 178.231 381.253 178.514 381.253 178.831C381.253 179.142 381.18 179.422 381.035 179.671Z" fill="#485756"/>
<path d="M384.752 180.367H384.53C384.387 180.367 384.272 180.296 384.183 180.155C384.094 180.014 384.049 179.833 384.049 179.612V174.91C384.049 174.791 384.012 174.697 383.938 174.626C383.863 174.555 383.764 174.52 383.639 174.52C383.515 174.52 383.415 174.555 383.341 174.626C383.267 174.696 383.229 174.791 383.229 174.91V179.612C383.229 179.912 383.284 180.176 383.394 180.405C383.504 180.635 383.657 180.816 383.853 180.949C384.049 181.082 384.274 181.148 384.53 181.148H384.583C384.738 181.148 384.865 181.113 384.966 181.042C385.067 180.971 385.118 180.876 385.118 180.757C385.118 180.638 385.085 180.544 385.02 180.473C384.954 180.403 384.865 180.367 384.752 180.367Z" fill="#485756"/>
<path d="M390.006 179.005C390.077 178.94 390.113 178.856 390.113 178.755C390.113 178.308 390.024 177.913 389.845 177.571C389.667 177.228 389.411 176.959 389.075 176.764C388.74 176.569 388.344 176.471 387.886 176.471C387.424 176.471 387.013 176.572 386.653 176.773C386.294 176.974 386.013 177.251 385.812 177.604C385.61 177.958 385.509 178.367 385.509 178.831C385.509 179.289 385.616 179.695 385.829 180.049C386.043 180.402 386.34 180.679 386.72 180.88C387.1 181.081 387.533 181.181 388.02 181.181C388.293 181.181 388.581 181.132 388.884 181.033C389.187 180.934 389.436 180.808 389.632 180.655C389.726 180.588 389.771 180.507 389.765 180.413C389.759 180.32 389.709 180.234 389.614 180.155C389.543 180.098 389.459 180.071 389.364 180.074C389.269 180.077 389.18 180.107 389.097 180.163C388.973 180.254 388.811 180.333 388.612 180.401C388.413 180.469 388.216 180.503 388.02 180.503C387.676 180.503 387.371 180.431 387.107 180.287C386.843 180.142 386.635 179.944 386.484 179.693C386.376 179.514 386.308 179.317 386.277 179.103H389.73C389.842 179.103 389.934 179.07 390.006 179.005ZM387.009 177.367C387.255 177.223 387.548 177.151 387.886 177.151C388.195 177.151 388.459 177.219 388.679 177.354C388.898 177.49 389.067 177.675 389.186 177.91C389.271 178.079 389.325 178.264 389.35 178.466H386.287C386.317 178.287 386.371 178.12 386.448 177.965C386.576 177.711 386.763 177.511 387.009 177.367Z" fill="#485756"/>
<path fill-rule="evenodd" clip-rule="evenodd" d="M408.553 186.894L409.476 185.04L410.414 186.894H408.553ZM408.762 183.872L406.11 188.874H407.569L408.133 187.74H410.858L411.45 188.874H412.946L410.221 183.872H408.762ZM416.078 185.991H415.062V184.718H416.133C416.689 184.718 417.024 184.724 417.136 184.736C417.358 184.763 417.53 184.828 417.653 184.932C417.775 185.036 417.836 185.172 417.836 185.341C417.836 185.491 417.789 185.618 417.697 185.718C417.604 185.818 417.476 185.888 417.312 185.93C417.148 185.971 416.736 185.991 416.078 185.991ZM418.195 187.089C418.002 186.936 417.757 186.797 417.461 186.669C418.058 186.606 418.507 186.452 418.807 186.207C419.107 185.962 419.257 185.651 419.257 185.276C419.257 184.98 419.157 184.717 418.959 184.487C418.761 184.257 418.497 184.097 418.167 184.007C417.837 183.917 417.309 183.872 416.58 183.872H413.685V188.874H415.062V186.789H415.341C415.657 186.789 415.888 186.807 416.034 186.845C416.18 186.882 416.318 186.951 416.449 187.052C416.578 187.152 416.82 187.396 417.175 187.782L418.162 188.874H419.807L418.975 187.9C418.648 187.511 418.389 187.24 418.195 187.089ZM428.814 186.67H432.228V185.824H428.814V184.718H432.481V183.872H427.437V188.874H432.615V188.027H428.814V186.67ZM433.305 183.872V184.718H435.328V188.874H436.704V184.718H438.712V183.872H433.305ZM403.718 187.841C403.456 188.012 403.142 188.097 402.778 188.097C402.283 188.097 401.881 187.963 401.573 187.695C401.263 187.426 401.109 186.975 401.109 186.342C401.109 185.746 401.266 185.314 401.578 185.048C401.892 184.781 402.299 184.648 402.803 184.648C403.166 184.648 403.476 184.723 403.73 184.874C403.984 185.024 404.153 185.229 404.232 185.488L405.594 185.25C405.439 184.849 405.207 184.543 404.897 184.329C404.379 183.969 403.702 183.788 402.871 183.788C401.918 183.788 401.149 184.018 400.564 184.478C399.979 184.939 399.688 185.585 399.688 186.417C399.688 187.204 399.979 187.824 400.561 188.277C401.143 188.731 401.885 188.958 402.788 188.958C403.519 188.958 404.122 188.824 404.597 188.557C405.072 188.292 405.412 187.884 405.616 187.335L404.285 187.034C404.171 187.401 403.982 187.67 403.718 187.841ZM424.697 187.227L421.895 183.872H420.562V188.874H421.834V185.592L424.595 188.874H425.97V183.872H424.697V187.227ZM419.094 171.037C425.825 171.037 431.401 173.457 432.517 176.635C432.648 176.256 432.733 175.869 432.733 175.471C432.733 171.736 426.627 168.708 419.094 168.708C411.562 168.708 405.456 171.736 405.456 175.471C405.456 175.869 405.539 176.256 405.672 176.635C406.787 173.457 412.364 171.037 419.094 171.037ZM419.094 175.061C425.825 175.061 431.401 177.481 432.517 180.659C432.649 180.281 432.733 179.893 432.733 179.495C432.733 175.76 426.627 172.733 419.094 172.733C411.562 172.733 405.456 175.76 405.456 179.495C405.456 179.893 405.539 180.281 405.672 180.659C406.787 177.481 412.364 175.061 419.094 175.061Z" fill="#EC1C24"/>
<rect x="0.5" y="0.5" width="643" height="224.333" rx="12.5" stroke="#FC4C02"/>
<defs>
<linearGradient id="paint0_linear_70_3795" x1="253.888" y1="185.583" x2="292.913" y2="185.583" gradientUnits="userSpaceOnUse">
<stop stop-color="#231F5D"/>
<stop offset="1" stop-color="#024DA1"/>
</linearGradient>
<linearGradient id="paint1_linear_70_3795" x1="286.317" y1="180.888" x2="288.79" y2="180.888" gradientUnits="userSpaceOnUse">
<stop stop-color="#231F5D"/>
<stop offset="1" stop-color="#024DA1"/>
</linearGradient>
</defs>
</svg>
